<?xml version="1.0" encoding="utf-8" standalone="no"?>
<!DOCTYPE svg PUBLIC "-//W3C//DTD SVG 1.1//EN"
  "http://www.w3.org/Graphics/SVG/1.1/DTD/svg11.dtd">
<!-- Created with matplotlib (http://matplotlib.org/) -->
<svg height="345.6pt" version="1.1" viewBox="0 0 460.8 345.6" width="460.8pt" xmlns="http://www.w3.org/2000/svg" xmlns:xlink="http://www.w3.org/1999/xlink">
 <defs>
  <style type="text/css">
*{stroke-linecap:butt;stroke-linejoin:round;}
  </style>
 </defs>
 <g id="figure_1">
  <g id="patch_1">
   <path d="M 0 345.6 
L 460.8 345.6 
L 460.8 0 
L 0 0 
z
" style="fill:#ffffff;"/>
  </g>
  <g id="axes_1">
   <g id="patch_2">
    <path d="M 38.27 287.8 
L 447.48 287.8 
L 447.48 13.32 
L 38.27 13.32 
z
" style="fill:#ffffff;"/>
   </g>
   <g id="matplotlib.axis_1">
    <g id="xtick_1">
     <g id="line2d_1">
      <defs>
       <path d="M 0 0 
L 0 3.5 
" id="m0f0eb69e65" style="stroke:#000000;stroke-width:0.8;"/>
      </defs>
      <g>
       <use style="stroke:#000000;stroke-width:0.8;" x="38.27" xlink:href="#m0f0eb69e65" y="287.8"/>
      </g>
     </g>
     <g id="text_1">
      <!-- A91 -->
      <defs>
       <path d="M 34.1875 63.1875 
L 20.796875 26.90625 
L 47.609375 26.90625 
z
M 28.609375 72.90625 
L 39.796875 72.90625 
L 67.578125 0 
L 57.328125 0 
L 50.6875 18.703125 
L 17.828125 18.703125 
L 11.1875 0 
L 0.78125 0 
z
" id="DejaVuSans-41"/>
       <path d="M 10.984375 1.515625 
L 10.984375 10.5 
Q 14.703125 8.734375 18.5 7.8125 
Q 22.3125 6.890625 25.984375 6.890625 
Q 35.75 6.890625 40.890625 13.453125 
Q 46.046875 20.015625 46.78125 33.40625 
Q 43.953125 29.203125 39.59375 26.953125 
Q 35.25 24.703125 29.984375 24.703125 
Q 19.046875 24.703125 12.671875 31.3125 
Q 6.296875 37.9375 6.296875 49.421875 
Q 6.296875 60.640625 12.9375 67.421875 
Q 19.578125 74.21875 30.609375 74.21875 
Q 43.265625 74.21875 49.921875 64.515625 
Q 56.59375 54.828125 56.59375 36.375 
Q 56.59375 19.140625 48.40625 8.859375 
Q 40.234375 -1.421875 26.421875 -1.421875 
Q 22.703125 -1.421875 18.890625 -0.6875 
Q 15.09375 0.046875 10.984375 1.515625 
z
M 30.609375 32.421875 
Q 37.25 32.421875 41.125 36.953125 
Q 45.015625 41.5 45.015625 49.421875 
Q 45.015625 57.28125 41.125 61.84375 
Q 37.25 66.40625 30.609375 66.40625 
Q 23.96875 66.40625 20.09375 61.84375 
Q 16.21875 57.28125 16.21875 49.421875 
Q 16.21875 41.5 20.09375 36.953125 
Q 23.96875 32.421875 30.609375 32.421875 
z
" id="DejaVuSans-39"/>
       <path d="M 12.40625 8.296875 
L 28.515625 8.296875 
L 28.515625 63.921875 
L 10.984375 60.40625 
L 10.984375 69.390625 
L 28.421875 72.90625 
L 38.28125 72.90625 
L 38.28125 8.296875 
L 54.390625 8.296875 
L 54.390625 0 
L 12.40625 0 
z
" id="DejaVuSans-31"/>
      </defs>
      <g transform="translate(41.029375 314.365625)rotate(-90)scale(0.1 -0.1)">
       <use xlink:href="#DejaVuSans-41"/>
       <use x="68.408203" xlink:href="#DejaVuSans-39"/>
       <use x="132.03125" xlink:href="#DejaVuSans-31"/>
      </g>
     </g>
    </g>
    <g id="xtick_2">
     <g id="line2d_2">
      <g>
       <use style="stroke:#000000;stroke-width:0.8;" x="54.803737" xlink:href="#m0f0eb69e65" y="287.8"/>
      </g>
     </g>
     <g id="text_2">
      <!-- A99 -->
      <g transform="translate(57.563112 314.365625)rotate(-90)scale(0.1 -0.1)">
       <use xlink:href="#DejaVuSans-41"/>
       <use x="68.408203" xlink:href="#DejaVuSans-39"/>
       <use x="132.03125" xlink:href="#DejaVuSans-39"/>
      </g>
     </g>
    </g>
    <g id="xtick_3">
     <g id="line2d_3">
      <g>
       <use style="stroke:#000000;stroke-width:0.8;" x="71.337475" xlink:href="#m0f0eb69e65" y="287.8"/>
      </g>
     </g>
     <g id="text_3">
      <!-- A107 -->
      <defs>
       <path d="M 31.78125 66.40625 
Q 24.171875 66.40625 20.328125 58.90625 
Q 16.5 51.421875 16.5 36.375 
Q 16.5 21.390625 20.328125 13.890625 
Q 24.171875 6.390625 31.78125 6.390625 
Q 39.453125 6.390625 43.28125 13.890625 
Q 47.125 21.390625 47.125 36.375 
Q 47.125 51.421875 43.28125 58.90625 
Q 39.453125 66.40625 31.78125 66.40625 
z
M 31.78125 74.21875 
Q 44.046875 74.21875 50.515625 64.515625 
Q 56.984375 54.828125 56.984375 36.375 
Q 56.984375 17.96875 50.515625 8.265625 
Q 44.046875 -1.421875 31.78125 -1.421875 
Q 19.53125 -1.421875 13.0625 8.265625 
Q 6.59375 17.96875 6.59375 36.375 
Q 6.59375 54.828125 13.0625 64.515625 
Q 19.53125 74.21875 31.78125 74.21875 
z
" id="DejaVuSans-30"/>
       <path d="M 8.203125 72.90625 
L 55.078125 72.90625 
L 55.078125 68.703125 
L 28.609375 0 
L 18.3125 0 
L 43.21875 64.59375 
L 8.203125 64.59375 
z
" id="DejaVuSans-37"/>
      </defs>
      <g transform="translate(74.09685 320.728125)rotate(-90)scale(0.1 -0.1)">
       <use xlink:href="#DejaVuSans-41"/>
       <use x="68.408203" xlink:href="#DejaVuSans-31"/>
       <use x="132.03125" xlink:href="#DejaVuSans-30"/>
       <use x="195.654297" xlink:href="#DejaVuSans-37"/>
      </g>
     </g>
    </g>
    <g id="xtick_4">
     <g id="line2d_4">
      <g>
       <use style="stroke:#000000;stroke-width:0.8;" x="87.871212" xlink:href="#m0f0eb69e65" y="287.8"/>
      </g>
     </g>
     <g id="text_4">
      <!-- A115 -->
      <defs>
       <path d="M 10.796875 72.90625 
L 49.515625 72.90625 
L 49.515625 64.59375 
L 19.828125 64.59375 
L 19.828125 46.734375 
Q 21.96875 47.46875 24.109375 47.828125 
Q 26.265625 48.1875 28.421875 48.1875 
Q 40.625 48.1875 47.75 41.5 
Q 54.890625 34.8125 54.890625 23.390625 
Q 54.890625 11.625 47.5625 5.09375 
Q 40.234375 -1.421875 26.90625 -1.421875 
Q 22.3125 -1.421875 17.546875 -0.640625 
Q 12.796875 0.140625 7.71875 1.703125 
L 7.71875 11.625 
Q 12.109375 9.234375 16.796875 8.0625 
Q 21.484375 6.890625 26.703125 6.890625 
Q 35.15625 6.890625 40.078125 11.328125 
Q 45.015625 15.765625 45.015625 23.390625 
Q 45.015625 31 40.078125 35.4375 
Q 35.15625 39.890625 26.703125 39.890625 
Q 22.75 39.890625 18.8125 39.015625 
Q 14.890625 38.140625 10.796875 36.28125 
z
" id="DejaVuSans-35"/>
      </defs>
      <g transform="translate(90.630587 320.728125)rotate(-90)scale(0.1 -0.1)">
       <use xlink:href="#DejaVuSans-41"/>
       <use x="68.408203" xlink:href="#DejaVuSans-31"/>
       <use x="132.03125" xlink:href="#DejaVuSans-31"/>
       <use x="195.654297" xlink:href="#DejaVuSans-35"/>
      </g>
     </g>
    </g>
    <g id="xtick_5">
     <g id="line2d_5">
      <g>
       <use style="stroke:#000000;stroke-width:0.8;" x="104.404949" xlink:href="#m0f0eb69e65" y="287.8"/>
      </g>
     </g>
     <g id="text_5">
      <!-- A123 -->
      <defs>
       <path d="M 19.1875 8.296875 
L 53.609375 8.296875 
L 53.609375 0 
L 7.328125 0 
L 7.328125 8.296875 
Q 12.9375 14.109375 22.625 23.890625 
Q 32.328125 33.6875 34.8125 36.53125 
Q 39.546875 41.84375 41.421875 45.53125 
Q 43.3125 49.21875 43.3125 52.78125 
Q 43.3125 58.59375 39.234375 62.25 
Q 35.15625 65.921875 28.609375 65.921875 
Q 23.96875 65.921875 18.8125 64.3125 
Q 13.671875 62.703125 7.8125 59.421875 
L 7.8125 69.390625 
Q 13.765625 71.78125 18.9375 73 
Q 24.125 74.21875 28.421875 74.21875 
Q 39.75 74.21875 46.484375 68.546875 
Q 53.21875 62.890625 53.21875 53.421875 
Q 53.21875 48.921875 51.53125 44.890625 
Q 49.859375 40.875 45.40625 35.40625 
Q 44.1875 33.984375 37.640625 27.21875 
Q 31.109375 20.453125 19.1875 8.296875 
z
" id="DejaVuSans-32"/>
       <path d="M 40.578125 39.3125 
Q 47.65625 37.796875 51.625 33 
Q 55.609375 28.21875 55.609375 21.1875 
Q 55.609375 10.40625 48.1875 4.484375 
Q 40.765625 -1.421875 27.09375 -1.421875 
Q 22.515625 -1.421875 17.65625 -0.515625 
Q 12.796875 0.390625 7.625 2.203125 
L 7.625 11.71875 
Q 11.71875 9.328125 16.59375 8.109375 
Q 21.484375 6.890625 26.8125 6.890625 
Q 36.078125 6.890625 40.9375 10.546875 
Q 45.796875 14.203125 45.796875 21.1875 
Q 45.796875 27.640625 41.28125 31.265625 
Q 36.765625 34.90625 28.71875 34.90625 
L 20.21875 34.90625 
L 20.21875 43.015625 
L 29.109375 43.015625 
Q 36.375 43.015625 40.234375 45.921875 
Q 44.09375 48.828125 44.09375 54.296875 
Q 44.09375 59.90625 40.109375 62.90625 
Q 36.140625 65.921875 28.71875 65.921875 
Q 24.65625 65.921875 20.015625 65.03125 
Q 15.375 64.15625 9.8125 62.3125 
L 9.8125 71.09375 
Q 15.4375 72.65625 20.34375 73.4375 
Q 25.25 74.21875 29.59375 74.21875 
Q 40.828125 74.21875 47.359375 69.109375 
Q 53.90625 64.015625 53.90625 55.328125 
Q 53.90625 49.265625 50.4375 45.09375 
Q 46.96875 40.921875 40.578125 39.3125 
z
" id="DejaVuSans-33"/>
      </defs>
      <g transform="translate(107.164324 320.728125)rotate(-90)scale(0.1 -0.1)">
       <use xlink:href="#DejaVuSans-41"/>
       <use x="68.408203" xlink:href="#DejaVuSans-31"/>
       <use x="132.03125" xlink:href="#DejaVuSans-32"/>
       <use x="195.654297" xlink:href="#DejaVuSans-33"/>
      </g>
     </g>
    </g>
    <g id="xtick_6">
     <g id="line2d_6">
      <g>
       <use style="stroke:#000000;stroke-width:0.8;" x="120.938687" xlink:href="#m0f0eb69e65" y="287.8"/>
      </g>
     </g>
     <g id="text_6">
      <!-- A131 -->
      <g transform="translate(123.698062 320.728125)rotate(-90)scale(0.1 -0.1)">
       <use xlink:href="#DejaVuSans-41"/>
       <use x="68.408203" xlink:href="#DejaVuSans-31"/>
       <use x="132.03125" xlink:href="#DejaVuSans-33"/>
       <use x="195.654297" xlink:href="#DejaVuSans-31"/>
      </g>
     </g>
    </g>
    <g id="xtick_7">
     <g id="line2d_7">
      <g>
       <use style="stroke:#000000;stroke-width:0.8;" x="137.472424" xlink:href="#m0f0eb69e65" y="287.8"/>
      </g>
     </g>
     <g id="text_7">
      <!-- A139 -->
      <g transform="translate(140.231799 320.728125)rotate(-90)scale(0.1 -0.1)">
       <use xlink:href="#DejaVuSans-41"/>
       <use x="68.408203" xlink:href="#DejaVuSans-31"/>
       <use x="132.03125" xlink:href="#DejaVuSans-33"/>
       <use x="195.654297" xlink:href="#DejaVuSans-39"/>
      </g>
     </g>
    </g>
    <g id="xtick_8">
     <g id="line2d_8">
      <g>
       <use style="stroke:#000000;stroke-width:0.8;" x="154.006162" xlink:href="#m0f0eb69e65" y="287.8"/>
      </g>
     </g>
     <g id="text_8">
      <!-- A147 -->
      <defs>
       <path d="M 37.796875 64.3125 
L 12.890625 25.390625 
L 37.796875 25.390625 
z
M 35.203125 72.90625 
L 47.609375 72.90625 
L 47.609375 25.390625 
L 58.015625 25.390625 
L 58.015625 17.1875 
L 47.609375 17.1875 
L 47.609375 0 
L 37.796875 0 
L 37.796875 17.1875 
L 4.890625 17.1875 
L 4.890625 26.703125 
z
" id="DejaVuSans-34"/>
      </defs>
      <g transform="translate(156.765537 320.728125)rotate(-90)scale(0.1 -0.1)">
       <use xlink:href="#DejaVuSans-41"/>
       <use x="68.408203" xlink:href="#DejaVuSans-31"/>
       <use x="132.03125" xlink:href="#DejaVuSans-34"/>
       <use x="195.654297" xlink:href="#DejaVuSans-37"/>
      </g>
     </g>
    </g>
    <g id="xtick_9">
     <g id="line2d_9">
      <g>
       <use style="stroke:#000000;stroke-width:0.8;" x="170.539899" xlink:href="#m0f0eb69e65" y="287.8"/>
      </g>
     </g>
     <g id="text_9">
      <!-- A155 -->
      <g transform="translate(173.299274 320.728125)rotate(-90)scale(0.1 -0.1)">
       <use xlink:href="#DejaVuSans-41"/>
       <use x="68.408203" xlink:href="#DejaVuSans-31"/>
       <use x="132.03125" xlink:href="#DejaVuSans-35"/>
       <use x="195.654297" xlink:href="#DejaVuSans-35"/>
      </g>
     </g>
    </g>
    <g id="xtick_10">
     <g id="line2d_10">
      <g>
       <use style="stroke:#000000;stroke-width:0.8;" x="187.073636" xlink:href="#m0f0eb69e65" y="287.8"/>
      </g>
     </g>
     <g id="text_10">
      <!-- A163 -->
      <defs>
       <path d="M 33.015625 40.375 
Q 26.375 40.375 22.484375 35.828125 
Q 18.609375 31.296875 18.609375 23.390625 
Q 18.609375 15.53125 22.484375 10.953125 
Q 26.375 6.390625 33.015625 6.390625 
Q 39.65625 6.390625 43.53125 10.953125 
Q 47.40625 15.53125 47.40625 23.390625 
Q 47.40625 31.296875 43.53125 35.828125 
Q 39.65625 40.375 33.015625 40.375 
z
M 52.59375 71.296875 
L 52.59375 62.3125 
Q 48.875 64.0625 45.09375 64.984375 
Q 41.3125 65.921875 37.59375 65.921875 
Q 27.828125 65.921875 22.671875 59.328125 
Q 17.53125 52.734375 16.796875 39.40625 
Q 19.671875 43.65625 24.015625 45.921875 
Q 28.375 48.1875 33.59375 48.1875 
Q 44.578125 48.1875 50.953125 41.515625 
Q 57.328125 34.859375 57.328125 23.390625 
Q 57.328125 12.15625 50.6875 5.359375 
Q 44.046875 -1.421875 33.015625 -1.421875 
Q 20.359375 -1.421875 13.671875 8.265625 
Q 6.984375 17.96875 6.984375 36.375 
Q 6.984375 53.65625 15.1875 63.9375 
Q 23.390625 74.21875 37.203125 74.21875 
Q 40.921875 74.21875 44.703125 73.484375 
Q 48.484375 72.75 52.59375 71.296875 
z
" id="DejaVuSans-36"/>
      </defs>
      <g transform="translate(189.833011 320.728125)rotate(-90)scale(0.1 -0.1)">
       <use xlink:href="#DejaVuSans-41"/>
       <use x="68.408203" xlink:href="#DejaVuSans-31"/>
       <use x="132.03125" xlink:href="#DejaVuSans-36"/>
       <use x="195.654297" xlink:href="#DejaVuSans-33"/>
      </g>
     </g>
    </g>
    <g id="xtick_11">
     <g id="line2d_11">
      <g>
       <use style="stroke:#000000;stroke-width:0.8;" x="203.607374" xlink:href="#m0f0eb69e65" y="287.8"/>
      </g>
     </g>
     <g id="text_11">
      <!-- A171 -->
      <g transform="translate(206.366749 320.728125)rotate(-90)scale(0.1 -0.1)">
       <use xlink:href="#DejaVuSans-41"/>
       <use x="68.408203" xlink:href="#DejaVuSans-31"/>
       <use x="132.03125" xlink:href="#DejaVuSans-37"/>
       <use x="195.654297" xlink:href="#DejaVuSans-31"/>
      </g>
     </g>
    </g>
    <g id="xtick_12">
     <g id="line2d_12">
      <g>
       <use style="stroke:#000000;stroke-width:0.8;" x="220.141111" xlink:href="#m0f0eb69e65" y="287.8"/>
      </g>
     </g>
     <g id="text_12">
      <!-- A179 -->
      <g transform="translate(222.900486 320.728125)rotate(-90)scale(0.1 -0.1)">
       <use xlink:href="#DejaVuSans-41"/>
       <use x="68.408203" xlink:href="#DejaVuSans-31"/>
       <use x="132.03125" xlink:href="#DejaVuSans-37"/>
       <use x="195.654297" xlink:href="#DejaVuSans-39"/>
      </g>
     </g>
    </g>
    <g id="xtick_13">
     <g id="line2d_13">
      <g>
       <use style="stroke:#000000;stroke-width:0.8;" x="236.674848" xlink:href="#m0f0eb69e65" y="287.8"/>
      </g>
     </g>
     <g id="text_13">
      <!-- A187 -->
      <defs>
       <path d="M 31.78125 34.625 
Q 24.75 34.625 20.71875 30.859375 
Q 16.703125 27.09375 16.703125 20.515625 
Q 16.703125 13.921875 20.71875 10.15625 
Q 24.75 6.390625 31.78125 6.390625 
Q 38.8125 6.390625 42.859375 10.171875 
Q 46.921875 13.96875 46.921875 20.515625 
Q 46.921875 27.09375 42.890625 30.859375 
Q 38.875 34.625 31.78125 34.625 
z
M 21.921875 38.8125 
Q 15.578125 40.375 12.03125 44.71875 
Q 8.5 49.078125 8.5 55.328125 
Q 8.5 64.0625 14.71875 69.140625 
Q 20.953125 74.21875 31.78125 74.21875 
Q 42.671875 74.21875 48.875 69.140625 
Q 55.078125 64.0625 55.078125 55.328125 
Q 55.078125 49.078125 51.53125 44.71875 
Q 48 40.375 41.703125 38.8125 
Q 48.828125 37.15625 52.796875 32.3125 
Q 56.78125 27.484375 56.78125 20.515625 
Q 56.78125 9.90625 50.3125 4.234375 
Q 43.84375 -1.421875 31.78125 -1.421875 
Q 19.734375 -1.421875 13.25 4.234375 
Q 6.78125 9.90625 6.78125 20.515625 
Q 6.78125 27.484375 10.78125 32.3125 
Q 14.796875 37.15625 21.921875 38.8125 
z
M 18.3125 54.390625 
Q 18.3125 48.734375 21.84375 45.5625 
Q 25.390625 42.390625 31.78125 42.390625 
Q 38.140625 42.390625 41.71875 45.5625 
Q 45.3125 48.734375 45.3125 54.390625 
Q 45.3125 60.0625 41.71875 63.234375 
Q 38.140625 66.40625 31.78125 66.40625 
Q 25.390625 66.40625 21.84375 63.234375 
Q 18.3125 60.0625 18.3125 54.390625 
z
" id="DejaVuSans-38"/>
      </defs>
      <g transform="translate(239.434223 320.728125)rotate(-90)scale(0.1 -0.1)">
       <use xlink:href="#DejaVuSans-41"/>
       <use x="68.408203" xlink:href="#DejaVuSans-31"/>
       <use x="132.03125" xlink:href="#DejaVuSans-38"/>
       <use x="195.654297" xlink:href="#DejaVuSans-37"/>
      </g>
     </g>
    </g>
    <g id="xtick_14">
     <g id="line2d_14">
      <g>
       <use style="stroke:#000000;stroke-width:0.8;" x="253.208586" xlink:href="#m0f0eb69e65" y="287.8"/>
      </g>
     </g>
     <g id="text_14">
      <!-- A195 -->
      <g transform="translate(255.967961 320.728125)rotate(-90)scale(0.1 -0.1)">
       <use xlink:href="#DejaVuSans-41"/>
       <use x="68.408203" xlink:href="#DejaVuSans-31"/>
       <use x="132.03125" xlink:href="#DejaVuSans-39"/>
       <use x="195.654297" xlink:href="#DejaVuSans-35"/>
      </g>
     </g>
    </g>
    <g id="xtick_15">
     <g id="line2d_15">
      <g>
       <use style="stroke:#000000;stroke-width:0.8;" x="269.742323" xlink:href="#m0f0eb69e65" y="287.8"/>
      </g>
     </g>
     <g id="text_15">
      <!-- A203 -->
      <g transform="translate(272.501698 320.728125)rotate(-90)scale(0.1 -0.1)">
       <use xlink:href="#DejaVuSans-41"/>
       <use x="68.408203" xlink:href="#DejaVuSans-32"/>
       <use x="132.03125" xlink:href="#DejaVuSans-30"/>
       <use x="195.654297" xlink:href="#DejaVuSans-33"/>
      </g>
     </g>
    </g>
    <g id="xtick_16">
     <g id="line2d_16">
      <g>
       <use style="stroke:#000000;stroke-width:0.8;" x="286.276061" xlink:href="#m0f0eb69e65" y="287.8"/>
      </g>
     </g>
     <g id="text_16">
      <!-- A211 -->
      <g transform="translate(289.035436 320.728125)rotate(-90)scale(0.1 -0.1)">
       <use xlink:href="#DejaVuSans-41"/>
       <use x="68.408203" xlink:href="#DejaVuSans-32"/>
       <use x="132.03125" xlink:href="#DejaVuSans-31"/>
       <use x="195.654297" xlink:href="#DejaVuSans-31"/>
      </g>
     </g>
    </g>
    <g id="xtick_17">
     <g id="line2d_17">
      <g>
       <use style="stroke:#000000;stroke-width:0.8;" x="302.809798" xlink:href="#m0f0eb69e65" y="287.8"/>
      </g>
     </g>
     <g id="text_17">
      <!-- A219 -->
      <g transform="translate(305.569173 320.728125)rotate(-90)scale(0.1 -0.1)">
       <use xlink:href="#DejaVuSans-41"/>
       <use x="68.408203" xlink:href="#DejaVuSans-32"/>
       <use x="132.03125" xlink:href="#DejaVuSans-31"/>
       <use x="195.654297" xlink:href="#DejaVuSans-39"/>
      </g>
     </g>
    </g>
    <g id="xtick_18">
     <g id="line2d_18">
      <g>
       <use style="stroke:#000000;stroke-width:0.8;" x="319.343535" xlink:href="#m0f0eb69e65" y="287.8"/>
      </g>
     </g>
     <g id="text_18">
      <!-- A227 -->
      <g transform="translate(322.10291 320.728125)rotate(-90)scale(0.1 -0.1)">
       <use xlink:href="#DejaVuSans-41"/>
       <use x="68.408203" xlink:href="#DejaVuSans-32"/>
       <use x="132.03125" xlink:href="#DejaVuSans-32"/>
       <use x="195.654297" xlink:href="#DejaVuSans-37"/>
      </g>
     </g>
    </g>
    <g id="xtick_19">
     <g id="line2d_19">
      <g>
       <use style="stroke:#000000;stroke-width:0.8;" x="335.877273" xlink:href="#m0f0eb69e65" y="287.8"/>
      </g>
     </g>
     <g id="text_19">
      <!-- A235 -->
      <g transform="translate(338.636648 320.728125)rotate(-90)scale(0.1 -0.1)">
       <use xlink:href="#DejaVuSans-41"/>
       <use x="68.408203" xlink:href="#DejaVuSans-32"/>
       <use x="132.03125" xlink:href="#DejaVuSans-33"/>
       <use x="195.654297" xlink:href="#DejaVuSans-35"/>
      </g>
     </g>
    </g>
    <g id="xtick_20">
     <g id="line2d_20">
      <g>
       <use style="stroke:#000000;stroke-width:0.8;" x="352.41101" xlink:href="#m0f0eb69e65" y="287.8"/>
      </g>
     </g>
     <g id="text_20">
      <!-- A243 -->
      <g transform="translate(355.170385 320.728125)rotate(-90)scale(0.1 -0.1)">
       <use xlink:href="#DejaVuSans-41"/>
       <use x="68.408203" xlink:href="#DejaVuSans-32"/>
       <use x="132.03125" xlink:href="#DejaVuSans-34"/>
       <use x="195.654297" xlink:href="#DejaVuSans-33"/>
      </g>
     </g>
    </g>
    <g id="xtick_21">
     <g id="line2d_21">
      <g>
       <use style="stroke:#000000;stroke-width:0.8;" x="368.944747" xlink:href="#m0f0eb69e65" y="287.8"/>
      </g>
     </g>
     <g id="text_21">
      <!-- A251 -->
      <g transform="translate(371.704122 320.728125)rotate(-90)scale(0.1 -0.1)">
       <use xlink:href="#DejaVuSans-41"/>
       <use x="68.408203" xlink:href="#DejaVuSans-32"/>
       <use x="132.03125" xlink:href="#DejaVuSans-35"/>
       <use x="195.654297" xlink:href="#DejaVuSans-31"/>
      </g>
     </g>
    </g>
    <g id="xtick_22">
     <g id="line2d_22">
      <g>
       <use style="stroke:#000000;stroke-width:0.8;" x="385.478485" xlink:href="#m0f0eb69e65" y="287.8"/>
      </g>
     </g>
     <g id="text_22">
      <!-- A259 -->
      <g transform="translate(388.23786 320.728125)rotate(-90)scale(0.1 -0.1)">
       <use xlink:href="#DejaVuSans-41"/>
       <use x="68.408203" xlink:href="#DejaVuSans-32"/>
       <use x="132.03125" xlink:href="#DejaVuSans-35"/>
       <use x="195.654297" xlink:href="#DejaVuSans-39"/>
      </g>
     </g>
    </g>
    <g id="xtick_23">
     <g id="line2d_23">
      <g>
       <use style="stroke:#000000;stroke-width:0.8;" x="402.012222" xlink:href="#m0f0eb69e65" y="287.8"/>
      </g>
     </g>
     <g id="text_23">
      <!-- A267 -->
      <g transform="translate(404.771597 320.728125)rotate(-90)scale(0.1 -0.1)">
       <use xlink:href="#DejaVuSans-41"/>
       <use x="68.408203" xlink:href="#DejaVuSans-32"/>
       <use x="132.03125" xlink:href="#DejaVuSans-36"/>
       <use x="195.654297" xlink:href="#DejaVuSans-37"/>
      </g>
     </g>
    </g>
    <g id="xtick_24">
     <g id="line2d_24">
      <g>
       <use style="stroke:#000000;stroke-width:0.8;" x="418.54596" xlink:href="#m0f0eb69e65" y="287.8"/>
      </g>
     </g>
     <g id="text_24">
      <!-- A275 -->
      <g transform="translate(421.305335 320.728125)rotate(-90)scale(0.1 -0.1)">
       <use xlink:href="#DejaVuSans-41"/>
       <use x="68.408203" xlink:href="#DejaVuSans-32"/>
       <use x="132.03125" xlink:href="#DejaVuSans-37"/>
       <use x="195.654297" xlink:href="#DejaVuSans-35"/>
      </g>
     </g>
    </g>
    <g id="xtick_25">
     <g id="line2d_25">
      <g>
       <use style="stroke:#000000;stroke-width:0.8;" x="435.079697" xlink:href="#m0f0eb69e65" y="287.8"/>
      </g>
     </g>
     <g id="text_25">
      <!-- A283 -->
      <g transform="translate(437.839072 320.728125)rotate(-90)scale(0.1 -0.1)">
       <use xlink:href="#DejaVuSans-41"/>
       <use x="68.408203" xlink:href="#DejaVuSans-32"/>
       <use x="132.03125" xlink:href="#DejaVuSans-38"/>
       <use x="195.654297" xlink:href="#DejaVuSans-33"/>
      </g>
     </g>
    </g>
    <g id="text_26">
     <!-- Residue index -->
     <defs>
      <path d="M 44.390625 34.1875 
Q 47.5625 33.109375 50.5625 29.59375 
Q 53.5625 26.078125 56.59375 19.921875 
L 66.609375 0 
L 56 0 
L 46.6875 18.703125 
Q 43.0625 26.03125 39.671875 28.421875 
Q 36.28125 30.8125 30.421875 30.8125 
L 19.671875 30.8125 
L 19.671875 0 
L 9.8125 0 
L 9.8125 72.90625 
L 32.078125 72.90625 
Q 44.578125 72.90625 50.734375 67.671875 
Q 56.890625 62.453125 56.890625 51.90625 
Q 56.890625 45.015625 53.6875 40.46875 
Q 50.484375 35.9375 44.390625 34.1875 
z
M 19.671875 64.796875 
L 19.671875 38.921875 
L 32.078125 38.921875 
Q 39.203125 38.921875 42.84375 42.21875 
Q 46.484375 45.515625 46.484375 51.90625 
Q 46.484375 58.296875 42.84375 61.546875 
Q 39.203125 64.796875 32.078125 64.796875 
z
" id="DejaVuSans-52"/>
      <path d="M 56.203125 29.59375 
L 56.203125 25.203125 
L 14.890625 25.203125 
Q 15.484375 15.921875 20.484375 11.0625 
Q 25.484375 6.203125 34.421875 6.203125 
Q 39.59375 6.203125 44.453125 7.46875 
Q 49.3125 8.734375 54.109375 11.28125 
L 54.109375 2.78125 
Q 49.265625 0.734375 44.1875 -0.34375 
Q 39.109375 -1.421875 33.890625 -1.421875 
Q 20.796875 -1.421875 13.15625 6.1875 
Q 5.515625 13.8125 5.515625 26.8125 
Q 5.515625 40.234375 12.765625 48.109375 
Q 20.015625 56 32.328125 56 
Q 43.359375 56 49.78125 48.890625 
Q 56.203125 41.796875 56.203125 29.59375 
z
M 47.21875 32.234375 
Q 47.125 39.59375 43.09375 43.984375 
Q 39.0625 48.390625 32.421875 48.390625 
Q 24.90625 48.390625 20.390625 44.140625 
Q 15.875 39.890625 15.1875 32.171875 
z
" id="DejaVuSans-65"/>
      <path d="M 44.28125 53.078125 
L 44.28125 44.578125 
Q 40.484375 46.53125 36.375 47.5 
Q 32.28125 48.484375 27.875 48.484375 
Q 21.1875 48.484375 17.84375 46.4375 
Q 14.5 44.390625 14.5 40.28125 
Q 14.5 37.15625 16.890625 35.375 
Q 19.28125 33.59375 26.515625 31.984375 
L 29.59375 31.296875 
Q 39.15625 29.25 43.1875 25.515625 
Q 47.21875 21.78125 47.21875 15.09375 
Q 47.21875 7.46875 41.1875 3.015625 
Q 35.15625 -1.421875 24.609375 -1.421875 
Q 20.21875 -1.421875 15.453125 -0.5625 
Q 10.6875 0.296875 5.421875 2 
L 5.421875 11.28125 
Q 10.40625 8.6875 15.234375 7.390625 
Q 20.0625 6.109375 24.8125 6.109375 
Q 31.15625 6.109375 34.5625 8.28125 
Q 37.984375 10.453125 37.984375 14.40625 
Q 37.984375 18.0625 35.515625 20.015625 
Q 33.0625 21.96875 24.703125 23.78125 
L 21.578125 24.515625 
Q 13.234375 26.265625 9.515625 29.90625 
Q 5.8125 33.546875 5.8125 39.890625 
Q 5.8125 47.609375 11.28125 51.796875 
Q 16.75 56 26.8125 56 
Q 31.78125 56 36.171875 55.265625 
Q 40.578125 54.546875 44.28125 53.078125 
z
" id="DejaVuSans-73"/>
      <path d="M 9.421875 54.6875 
L 18.40625 54.6875 
L 18.40625 0 
L 9.421875 0 
z
M 9.421875 75.984375 
L 18.40625 75.984375 
L 18.40625 64.59375 
L 9.421875 64.59375 
z
" id="DejaVuSans-69"/>
      <path d="M 45.40625 46.390625 
L 45.40625 75.984375 
L 54.390625 75.984375 
L 54.390625 0 
L 45.40625 0 
L 45.40625 8.203125 
Q 42.578125 3.328125 38.25 0.953125 
Q 33.9375 -1.421875 27.875 -1.421875 
Q 17.96875 -1.421875 11.734375 6.484375 
Q 5.515625 14.40625 5.515625 27.296875 
Q 5.515625 40.1875 11.734375 48.09375 
Q 17.96875 56 27.875 56 
Q 33.9375 56 38.25 53.625 
Q 42.578125 51.265625 45.40625 46.390625 
z
M 14.796875 27.296875 
Q 14.796875 17.390625 18.875 11.75 
Q 22.953125 6.109375 30.078125 6.109375 
Q 37.203125 6.109375 41.296875 11.75 
Q 45.40625 17.390625 45.40625 27.296875 
Q 45.40625 37.203125 41.296875 42.84375 
Q 37.203125 48.484375 30.078125 48.484375 
Q 22.953125 48.484375 18.875 42.84375 
Q 14.796875 37.203125 14.796875 27.296875 
z
" id="DejaVuSans-64"/>
      <path d="M 8.5 21.578125 
L 8.5 54.6875 
L 17.484375 54.6875 
L 17.484375 21.921875 
Q 17.484375 14.15625 20.5 10.265625 
Q 23.53125 6.390625 29.59375 6.390625 
Q 36.859375 6.390625 41.078125 11.03125 
Q 45.3125 15.671875 45.3125 23.6875 
L 45.3125 54.6875 
L 54.296875 54.6875 
L 54.296875 0 
L 45.3125 0 
L 45.3125 8.40625 
Q 42.046875 3.421875 37.71875 1 
Q 33.40625 -1.421875 27.6875 -1.421875 
Q 18.265625 -1.421875 13.375 4.4375 
Q 8.5 10.296875 8.5 21.578125 
z
M 31.109375 56 
z
" id="DejaVuSans-75"/>
      <path id="DejaVuSans-20"/>
      <path d="M 54.890625 33.015625 
L 54.890625 0 
L 45.90625 0 
L 45.90625 32.71875 
Q 45.90625 40.484375 42.875 44.328125 
Q 39.84375 48.1875 33.796875 48.1875 
Q 26.515625 48.1875 22.3125 43.546875 
Q 18.109375 38.921875 18.109375 30.90625 
L 18.109375 0 
L 9.078125 0 
L 9.078125 54.6875 
L 18.109375 54.6875 
L 18.109375 46.1875 
Q 21.34375 51.125 25.703125 53.5625 
Q 30.078125 56 35.796875 56 
Q 45.21875 56 50.046875 50.171875 
Q 54.890625 44.34375 54.890625 33.015625 
z
" id="DejaVuSans-6e"/>
      <path d="M 54.890625 54.6875 
L 35.109375 28.078125 
L 55.90625 0 
L 45.3125 0 
L 29.390625 21.484375 
L 13.484375 0 
L 2.875 0 
L 24.125 28.609375 
L 4.6875 54.6875 
L 15.28125 54.6875 
L 29.78125 35.203125 
L 44.28125 54.6875 
z
" id="DejaVuSans-78"/>
     </defs>
     <g transform="translate(207.557813 332.326562)scale(0.1 -0.1)">
      <use xlink:href="#DejaVuSans-52"/>
      <use x="69.419922" xlink:href="#DejaVuSans-65"/>
      <use x="130.943359" xlink:href="#DejaVuSans-73"/>
      <use x="183.042969" xlink:href="#DejaVuSans-69"/>
      <use x="210.826172" xlink:href="#DejaVuSans-64"/>
      <use x="274.302734" xlink:href="#DejaVuSans-75"/>
      <use x="337.681641" xlink:href="#DejaVuSans-65"/>
      <use x="399.205078" xlink:href="#DejaVuSans-20"/>
      <use x="430.992188" xlink:href="#DejaVuSans-69"/>
      <use x="458.775391" xlink:href="#DejaVuSans-6e"/>
      <use x="522.154297" xlink:href="#DejaVuSans-64"/>
      <use x="585.630859" xlink:href="#DejaVuSans-65"/>
      <use x="647.138672" xlink:href="#DejaVuSans-78"/>
     </g>
    </g>
   </g>
   <g id="matplotlib.axis_2">
    <g id="ytick_1">
     <g id="line2d_26">
      <defs>
       <path d="M 0 0 
L -3.5 0 
" id="md43bed8f70" style="stroke:#000000;stroke-width:0.8;"/>
      </defs>
      <g>
       <use style="stroke:#000000;stroke-width:0.8;" x="38.27" xlink:href="#md43bed8f70" y="284.949741"/>
      </g>
     </g>
     <g id="text_27">
      <!-- 0 -->
      <g transform="translate(24.9075 288.74896)scale(0.1 -0.1)">
       <use xlink:href="#DejaVuSans-30"/>
      </g>
     </g>
    </g>
    <g id="ytick_2">
     <g id="line2d_27">
      <g>
       <use style="stroke:#000000;stroke-width:0.8;" x="38.27" xlink:href="#md43bed8f70" y="249.348058"/>
      </g>
     </g>
     <g id="text_28">
      <!-- 1 -->
      <g transform="translate(24.9075 253.147277)scale(0.1 -0.1)">
       <use xlink:href="#DejaVuSans-31"/>
      </g>
     </g>
    </g>
    <g id="ytick_3">
     <g id="line2d_28">
      <g>
       <use style="stroke:#000000;stroke-width:0.8;" x="38.27" xlink:href="#md43bed8f70" y="213.746375"/>
      </g>
     </g>
     <g id="text_29">
      <!-- 2 -->
      <g transform="translate(24.9075 217.545594)scale(0.1 -0.1)">
       <use xlink:href="#DejaVuSans-32"/>
      </g>
     </g>
    </g>
    <g id="ytick_4">
     <g id="line2d_29">
      <g>
       <use style="stroke:#000000;stroke-width:0.8;" x="38.27" xlink:href="#md43bed8f70" y="178.144692"/>
      </g>
     </g>
     <g id="text_30">
      <!-- 3 -->
      <g transform="translate(24.9075 181.943911)scale(0.1 -0.1)">
       <use xlink:href="#DejaVuSans-33"/>
      </g>
     </g>
    </g>
    <g id="ytick_5">
     <g id="line2d_30">
      <g>
       <use style="stroke:#000000;stroke-width:0.8;" x="38.27" xlink:href="#md43bed8f70" y="142.543009"/>
      </g>
     </g>
     <g id="text_31">
      <!-- 4 -->
      <g transform="translate(24.9075 146.342227)scale(0.1 -0.1)">
       <use xlink:href="#DejaVuSans-34"/>
      </g>
     </g>
    </g>
    <g id="ytick_6">
     <g id="line2d_31">
      <g>
       <use style="stroke:#000000;stroke-width:0.8;" x="38.27" xlink:href="#md43bed8f70" y="106.941325"/>
      </g>
     </g>
     <g id="text_32">
      <!-- 5 -->
      <g transform="translate(24.9075 110.740544)scale(0.1 -0.1)">
       <use xlink:href="#DejaVuSans-35"/>
      </g>
     </g>
    </g>
    <g id="ytick_7">
     <g id="line2d_32">
      <g>
       <use style="stroke:#000000;stroke-width:0.8;" x="38.27" xlink:href="#md43bed8f70" y="71.339642"/>
      </g>
     </g>
     <g id="text_33">
      <!-- 6 -->
      <g transform="translate(24.9075 75.138861)scale(0.1 -0.1)">
       <use xlink:href="#DejaVuSans-36"/>
      </g>
     </g>
    </g>
    <g id="ytick_8">
     <g id="line2d_33">
      <g>
       <use style="stroke:#000000;stroke-width:0.8;" x="38.27" xlink:href="#md43bed8f70" y="35.737959"/>
      </g>
     </g>
     <g id="text_34">
      <!-- 7 -->
      <g transform="translate(24.9075 39.537178)scale(0.1 -0.1)">
       <use xlink:href="#DejaVuSans-37"/>
      </g>
     </g>
    </g>
    <g id="text_35">
     <!-- RMSF -->
     <defs>
      <path d="M 9.8125 72.90625 
L 24.515625 72.90625 
L 43.109375 23.296875 
L 61.8125 72.90625 
L 76.515625 72.90625 
L 76.515625 0 
L 66.890625 0 
L 66.890625 64.015625 
L 48.09375 14.015625 
L 38.1875 14.015625 
L 19.390625 64.015625 
L 19.390625 0 
L 9.8125 0 
z
" id="DejaVuSans-4d"/>
      <path d="M 53.515625 70.515625 
L 53.515625 60.890625 
Q 47.90625 63.578125 42.921875 64.890625 
Q 37.9375 66.21875 33.296875 66.21875 
Q 25.25 66.21875 20.875 63.09375 
Q 16.5 59.96875 16.5 54.203125 
Q 16.5 49.359375 19.40625 46.890625 
Q 22.3125 44.4375 30.421875 42.921875 
L 36.375 41.703125 
Q 47.40625 39.59375 52.65625 34.296875 
Q 57.90625 29 57.90625 20.125 
Q 57.90625 9.515625 50.796875 4.046875 
Q 43.703125 -1.421875 29.984375 -1.421875 
Q 24.8125 -1.421875 18.96875 -0.25 
Q 13.140625 0.921875 6.890625 3.21875 
L 6.890625 13.375 
Q 12.890625 10.015625 18.65625 8.296875 
Q 24.421875 6.59375 29.984375 6.59375 
Q 38.421875 6.59375 43.015625 9.90625 
Q 47.609375 13.234375 47.609375 19.390625 
Q 47.609375 24.75 44.3125 27.78125 
Q 41.015625 30.8125 33.5 32.328125 
L 27.484375 33.5 
Q 16.453125 35.6875 11.515625 40.375 
Q 6.59375 45.0625 6.59375 53.421875 
Q 6.59375 63.09375 13.40625 68.65625 
Q 20.21875 74.21875 32.171875 74.21875 
Q 37.3125 74.21875 42.625 73.28125 
Q 47.953125 72.359375 53.515625 70.515625 
z
" id="DejaVuSans-53"/>
      <path d="M 9.8125 72.90625 
L 51.703125 72.90625 
L 51.703125 64.59375 
L 19.671875 64.59375 
L 19.671875 43.109375 
L 48.578125 43.109375 
L 48.578125 34.8125 
L 19.671875 34.8125 
L 19.671875 0 
L 9.8125 0 
z
" id="DejaVuSans-46"/>
     </defs>
     <g transform="translate(18.827813 164.398281)rotate(-90)scale(0.1 -0.1)">
      <use xlink:href="#DejaVuSans-52"/>
      <use x="69.482422" xlink:href="#DejaVuSans-4d"/>
      <use x="155.761719" xlink:href="#DejaVuSans-53"/>
      <use x="219.238281" xlink:href="#DejaVuSans-46"/>
     </g>
    </g>
   </g>
   <g id="line2d_34">
    <path clip-path="url(#p9173464825)" d="M 38.27 243.57155 
L 40.336717 240.575218 
L 42.403434 246.752184 
L 44.470152 244.302839 
L 46.536869 241.462725 
L 48.603586 227.324033 
L 50.670303 241.134912 
L 52.73702 217.823134 
L 54.803737 217.516972 
L 56.870455 239.809138 
L 58.937172 258.885325 
L 61.003889 260.117586 
L 63.070606 258.729432 
L 65.137323 260.617557 
L 67.20404 255.570881 
L 69.270758 260.411311 
L 71.337475 264.07897 
L 73.404192 262.908971 
L 75.470909 269.148078 
L 77.537626 270.194898 
L 79.604343 269.288283 
L 81.671061 263.10294 
L 83.737778 262.483666 
L 85.804495 232.877888 
L 92.004646 183.628898 
L 94.071364 164.985298 
L 96.138081 132.724664 
L 98.204798 141.68179 
L 100.271515 185.039375 
L 102.338232 225.185771 
L 104.404949 253.639146 
L 106.471667 270.88207 
L 108.538384 270.182755 
L 110.605101 271.634881 
L 112.671818 265.407157 
L 114.738535 251.508984 
L 116.805253 201.852536 
L 118.87197 195.124069 
L 120.938687 249.253544 
L 123.005404 270.247809 
L 125.072121 275.323636 
L 127.138838 271.350029 
L 129.205556 272.477243 
L 131.272273 270.447392 
L 133.33899 267.711348 
L 135.405707 259.811893 
L 137.472424 267.465939 
L 139.539141 269.835694 
L 141.605859 269.604426 
L 145.739293 272.172331 
L 147.80601 269.918659 
L 149.872727 266.25901 
L 151.939444 266.910251 
L 154.006162 260.085335 
L 156.072879 239.882111 
L 158.139596 214.372465 
L 160.206313 215.784684 
L 162.27303 202.041003 
L 164.339747 216.968849 
L 166.406465 205.640388 
L 168.473182 223.839574 
L 170.539899 256.397691 
L 172.606616 268.325084 
L 174.673333 271.662684 
L 176.740051 266.867817 
L 178.806768 264.733052 
L 180.873485 266.550603 
L 182.940202 266.482023 
L 185.006919 271.654525 
L 187.073636 264.133296 
L 189.140354 265.216157 
L 191.207071 243.541307 
L 193.273788 210.706337 
L 195.340505 234.550693 
L 197.407222 256.768923 
L 199.473939 255.739039 
L 201.540657 254.352614 
L 203.607374 257.425211 
L 205.674091 259.443379 
L 207.740808 269.208336 
L 209.807525 268.29041 
L 211.874242 269.084524 
L 213.94096 267.877836 
L 216.007677 256.426965 
L 218.074394 250.015227 
L 220.141111 262.296694 
L 222.207828 260.699921 
L 224.274545 251.451675 
L 226.341263 247.297841 
L 230.474697 212.662405 
L 232.541414 177.771566 
L 234.608131 91.628347 
L 236.674848 37.040588 
L 238.741566 25.796364 
L 240.808283 75.801323 
L 242.875 159.218005 
L 244.941717 258.884512 
L 247.008434 273.680047 
L 249.075152 263.796281 
L 251.141869 272.272906 
L 253.208586 263.865112 
L 255.275303 268.550637 
L 257.34202 264.43602 
L 259.408737 261.121228 
L 261.475455 234.290108 
L 263.542172 245.265103 
L 265.608889 250.246838 
L 267.675606 250.161969 
L 271.80904 262.540144 
L 273.875758 259.467487 
L 275.942475 261.897758 
L 278.009192 257.546769 
L 284.209343 239.67236 
L 286.276061 246.602039 
L 288.342778 258.068689 
L 290.409495 261.423281 
L 292.476212 258.623601 
L 294.542929 268.359896 
L 296.609646 272.218613 
L 298.676364 266.113297 
L 300.743081 269.225532 
L 302.809798 260.936474 
L 304.876515 252.165044 
L 306.943232 234.400372 
L 309.009949 236.153143 
L 311.076667 229.145294 
L 313.143384 203.560228 
L 315.210101 169.91081 
L 317.276818 179.050527 
L 319.343535 209.538948 
L 321.410253 234.344998 
L 325.543687 263.927554 
L 327.610404 267.711382 
L 329.677121 266.034331 
L 331.743838 266.414845 
L 333.810556 269.88201 
L 335.877273 270.134534 
L 340.010707 259.000502 
L 342.077424 268.483295 
L 344.144141 272.434564 
L 346.210859 261.177785 
L 348.277576 234.972375 
L 350.344293 234.367386 
L 352.41101 234.61297 
L 354.477727 223.120035 
L 356.544444 245.608118 
L 358.611162 260.4444 
L 360.677879 252.386033 
L 362.744596 226.693355 
L 364.811313 210.21716 
L 366.87803 255.130524 
L 368.944747 266.614694 
L 371.011465 273.025358 
L 373.078182 270.913999 
L 375.144899 269.304993 
L 377.211616 274.596973 
L 379.278333 274.229591 
L 381.345051 271.693659 
L 383.411768 264.918235 
L 385.478485 254.704187 
L 387.545202 232.804311 
L 389.611919 206.796883 
L 391.678636 191.902407 
L 393.745354 227.768351 
L 395.812071 255.095656 
L 397.878788 256.029489 
L 399.945505 271.290771 
L 402.012222 268.421917 
L 404.078939 268.703217 
L 406.145657 268.326516 
L 408.212374 271.280707 
L 410.279091 272.050569 
L 412.345808 272.635908 
L 414.412525 272.764042 
L 416.479242 267.52441 
L 418.54596 258.685429 
L 422.679394 260.008695 
L 424.746111 268.629682 
L 426.812828 252.4751 
L 428.879545 241.832021 
L 430.946263 262.375704 
L 433.01298 261.411488 
L 435.079697 235.061743 
L 437.146414 240.510052 
L 439.213131 244.315076 
L 441.279848 242.819929 
L 443.346566 231.047058 
L 445.413283 216.861486 
L 447.48 186.565939 
L 447.48 186.565939 
" style="fill:none;stroke:#666666;stroke-dasharray:1,1.65;stroke-dashoffset:0;"/>
    <defs>
     <path d="M 0 0.5 
C 0.132602 0.5 0.25979 0.447317 0.353553 0.353553 
C 0.447317 0.25979 0.5 0.132602 0.5 0 
C 0.5 -0.132602 0.447317 -0.25979 0.353553 -0.353553 
C 0.25979 -0.447317 0.132602 -0.5 0 -0.5 
C -0.132602 -0.5 -0.25979 -0.447317 -0.353553 -0.353553 
C -0.447317 -0.25979 -0.5 -0.132602 -0.5 0 
C -0.5 0.132602 -0.447317 0.25979 -0.353553 0.353553 
C -0.25979 0.447317 -0.132602 0.5 0 0.5 
z
" id="m792911a9d8" style="stroke:#666666;"/>
    </defs>
    <g clip-path="url(#p9173464825)">
     <use style="fill:#666666;stroke:#666666;" x="38.27" xlink:href="#m792911a9d8" y="243.57155"/>
     <use style="fill:#666666;stroke:#666666;" x="40.336717" xlink:href="#m792911a9d8" y="240.575218"/>
     <use style="fill:#666666;stroke:#666666;" x="42.403434" xlink:href="#m792911a9d8" y="246.752184"/>
     <use style="fill:#666666;stroke:#666666;" x="44.470152" xlink:href="#m792911a9d8" y="244.302839"/>
     <use style="fill:#666666;stroke:#666666;" x="46.536869" xlink:href="#m792911a9d8" y="241.462725"/>
     <use style="fill:#666666;stroke:#666666;" x="48.603586" xlink:href="#m792911a9d8" y="227.324033"/>
     <use style="fill:#666666;stroke:#666666;" x="50.670303" xlink:href="#m792911a9d8" y="241.134912"/>
     <use style="fill:#666666;stroke:#666666;" x="52.73702" xlink:href="#m792911a9d8" y="217.823134"/>
     <use style="fill:#666666;stroke:#666666;" x="54.803737" xlink:href="#m792911a9d8" y="217.516972"/>
     <use style="fill:#666666;stroke:#666666;" x="56.870455" xlink:href="#m792911a9d8" y="239.809138"/>
     <use style="fill:#666666;stroke:#666666;" x="58.937172" xlink:href="#m792911a9d8" y="258.885325"/>
     <use style="fill:#666666;stroke:#666666;" x="61.003889" xlink:href="#m792911a9d8" y="260.117586"/>
     <use style="fill:#666666;stroke:#666666;" x="63.070606" xlink:href="#m792911a9d8" y="258.729432"/>
     <use style="fill:#666666;stroke:#666666;" x="65.137323" xlink:href="#m792911a9d8" y="260.617557"/>
     <use style="fill:#666666;stroke:#666666;" x="67.20404" xlink:href="#m792911a9d8" y="255.570881"/>
     <use style="fill:#666666;stroke:#666666;" x="69.270758" xlink:href="#m792911a9d8" y="260.411311"/>
     <use style="fill:#666666;stroke:#666666;" x="71.337475" xlink:href="#m792911a9d8" y="264.07897"/>
     <use style="fill:#666666;stroke:#666666;" x="73.404192" xlink:href="#m792911a9d8" y="262.908971"/>
     <use style="fill:#666666;stroke:#666666;" x="75.470909" xlink:href="#m792911a9d8" y="269.148078"/>
     <use style="fill:#666666;stroke:#666666;" x="77.537626" xlink:href="#m792911a9d8" y="270.194898"/>
     <use style="fill:#666666;stroke:#666666;" x="79.604343" xlink:href="#m792911a9d8" y="269.288283"/>
     <use style="fill:#666666;stroke:#666666;" x="81.671061" xlink:href="#m792911a9d8" y="263.10294"/>
     <use style="fill:#666666;stroke:#666666;" x="83.737778" xlink:href="#m792911a9d8" y="262.483666"/>
     <use style="fill:#666666;stroke:#666666;" x="85.804495" xlink:href="#m792911a9d8" y="232.877888"/>
     <use style="fill:#666666;stroke:#666666;" x="87.871212" xlink:href="#m792911a9d8" y="216.222079"/>
     <use style="fill:#666666;stroke:#666666;" x="89.937929" xlink:href="#m792911a9d8" y="199.642211"/>
     <use style="fill:#666666;stroke:#666666;" x="92.004646" xlink:href="#m792911a9d8" y="183.628898"/>
     <use style="fill:#666666;stroke:#666666;" x="94.071364" xlink:href="#m792911a9d8" y="164.985298"/>
     <use style="fill:#666666;stroke:#666666;" x="96.138081" xlink:href="#m792911a9d8" y="132.724664"/>
     <use style="fill:#666666;stroke:#666666;" x="98.204798" xlink:href="#m792911a9d8" y="141.68179"/>
     <use style="fill:#666666;stroke:#666666;" x="100.271515" xlink:href="#m792911a9d8" y="185.039375"/>
     <use style="fill:#666666;stroke:#666666;" x="102.338232" xlink:href="#m792911a9d8" y="225.185771"/>
     <use style="fill:#666666;stroke:#666666;" x="104.404949" xlink:href="#m792911a9d8" y="253.639146"/>
     <use style="fill:#666666;stroke:#666666;" x="106.471667" xlink:href="#m792911a9d8" y="270.88207"/>
     <use style="fill:#666666;stroke:#666666;" x="108.538384" xlink:href="#m792911a9d8" y="270.182755"/>
     <use style="fill:#666666;stroke:#666666;" x="110.605101" xlink:href="#m792911a9d8" y="271.634881"/>
     <use style="fill:#666666;stroke:#666666;" x="112.671818" xlink:href="#m792911a9d8" y="265.407157"/>
     <use style="fill:#666666;stroke:#666666;" x="114.738535" xlink:href="#m792911a9d8" y="251.508984"/>
     <use style="fill:#666666;stroke:#666666;" x="116.805253" xlink:href="#m792911a9d8" y="201.852536"/>
     <use style="fill:#666666;stroke:#666666;" x="118.87197" xlink:href="#m792911a9d8" y="195.124069"/>
     <use style="fill:#666666;stroke:#666666;" x="120.938687" xlink:href="#m792911a9d8" y="249.253544"/>
     <use style="fill:#666666;stroke:#666666;" x="123.005404" xlink:href="#m792911a9d8" y="270.247809"/>
     <use style="fill:#666666;stroke:#666666;" x="125.072121" xlink:href="#m792911a9d8" y="275.323636"/>
     <use style="fill:#666666;stroke:#666666;" x="127.138838" xlink:href="#m792911a9d8" y="271.350029"/>
     <use style="fill:#666666;stroke:#666666;" x="129.205556" xlink:href="#m792911a9d8" y="272.477243"/>
     <use style="fill:#666666;stroke:#666666;" x="131.272273" xlink:href="#m792911a9d8" y="270.447392"/>
     <use style="fill:#666666;stroke:#666666;" x="133.33899" xlink:href="#m792911a9d8" y="267.711348"/>
     <use style="fill:#666666;stroke:#666666;" x="135.405707" xlink:href="#m792911a9d8" y="259.811893"/>
     <use style="fill:#666666;stroke:#666666;" x="137.472424" xlink:href="#m792911a9d8" y="267.465939"/>
     <use style="fill:#666666;stroke:#666666;" x="139.539141" xlink:href="#m792911a9d8" y="269.835694"/>
     <use style="fill:#666666;stroke:#666666;" x="141.605859" xlink:href="#m792911a9d8" y="269.604426"/>
     <use style="fill:#666666;stroke:#666666;" x="143.672576" xlink:href="#m792911a9d8" y="270.844432"/>
     <use style="fill:#666666;stroke:#666666;" x="145.739293" xlink:href="#m792911a9d8" y="272.172331"/>
     <use style="fill:#666666;stroke:#666666;" x="147.80601" xlink:href="#m792911a9d8" y="269.918659"/>
     <use style="fill:#666666;stroke:#666666;" x="149.872727" xlink:href="#m792911a9d8" y="266.25901"/>
     <use style="fill:#666666;stroke:#666666;" x="151.939444" xlink:href="#m792911a9d8" y="266.910251"/>
     <use style="fill:#666666;stroke:#666666;" x="154.006162" xlink:href="#m792911a9d8" y="260.085335"/>
     <use style="fill:#666666;stroke:#666666;" x="156.072879" xlink:href="#m792911a9d8" y="239.882111"/>
     <use style="fill:#666666;stroke:#666666;" x="158.139596" xlink:href="#m792911a9d8" y="214.372465"/>
     <use style="fill:#666666;stroke:#666666;" x="160.206313" xlink:href="#m792911a9d8" y="215.784684"/>
     <use style="fill:#666666;stroke:#666666;" x="162.27303" xlink:href="#m792911a9d8" y="202.041003"/>
     <use style="fill:#666666;stroke:#666666;" x="164.339747" xlink:href="#m792911a9d8" y="216.968849"/>
     <use style="fill:#666666;stroke:#666666;" x="166.406465" xlink:href="#m792911a9d8" y="205.640388"/>
     <use style="fill:#666666;stroke:#666666;" x="168.473182" xlink:href="#m792911a9d8" y="223.839574"/>
     <use style="fill:#666666;stroke:#666666;" x="170.539899" xlink:href="#m792911a9d8" y="256.397691"/>
     <use style="fill:#666666;stroke:#666666;" x="172.606616" xlink:href="#m792911a9d8" y="268.325084"/>
     <use style="fill:#666666;stroke:#666666;" x="174.673333" xlink:href="#m792911a9d8" y="271.662684"/>
     <use style="fill:#666666;stroke:#666666;" x="176.740051" xlink:href="#m792911a9d8" y="266.867817"/>
     <use style="fill:#666666;stroke:#666666;" x="178.806768" xlink:href="#m792911a9d8" y="264.733052"/>
     <use style="fill:#666666;stroke:#666666;" x="180.873485" xlink:href="#m792911a9d8" y="266.550603"/>
     <use style="fill:#666666;stroke:#666666;" x="182.940202" xlink:href="#m792911a9d8" y="266.482023"/>
     <use style="fill:#666666;stroke:#666666;" x="185.006919" xlink:href="#m792911a9d8" y="271.654525"/>
     <use style="fill:#666666;stroke:#666666;" x="187.073636" xlink:href="#m792911a9d8" y="264.133296"/>
     <use style="fill:#666666;stroke:#666666;" x="189.140354" xlink:href="#m792911a9d8" y="265.216157"/>
     <use style="fill:#666666;stroke:#666666;" x="191.207071" xlink:href="#m792911a9d8" y="243.541307"/>
     <use style="fill:#666666;stroke:#666666;" x="193.273788" xlink:href="#m792911a9d8" y="210.706337"/>
     <use style="fill:#666666;stroke:#666666;" x="195.340505" xlink:href="#m792911a9d8" y="234.550693"/>
     <use style="fill:#666666;stroke:#666666;" x="197.407222" xlink:href="#m792911a9d8" y="256.768923"/>
     <use style="fill:#666666;stroke:#666666;" x="199.473939" xlink:href="#m792911a9d8" y="255.739039"/>
     <use style="fill:#666666;stroke:#666666;" x="201.540657" xlink:href="#m792911a9d8" y="254.352614"/>
     <use style="fill:#666666;stroke:#666666;" x="203.607374" xlink:href="#m792911a9d8" y="257.425211"/>
     <use style="fill:#666666;stroke:#666666;" x="205.674091" xlink:href="#m792911a9d8" y="259.443379"/>
     <use style="fill:#666666;stroke:#666666;" x="207.740808" xlink:href="#m792911a9d8" y="269.208336"/>
     <use style="fill:#666666;stroke:#666666;" x="209.807525" xlink:href="#m792911a9d8" y="268.29041"/>
     <use style="fill:#666666;stroke:#666666;" x="211.874242" xlink:href="#m792911a9d8" y="269.084524"/>
     <use style="fill:#666666;stroke:#666666;" x="213.94096" xlink:href="#m792911a9d8" y="267.877836"/>
     <use style="fill:#666666;stroke:#666666;" x="216.007677" xlink:href="#m792911a9d8" y="256.426965"/>
     <use style="fill:#666666;stroke:#666666;" x="218.074394" xlink:href="#m792911a9d8" y="250.015227"/>
     <use style="fill:#666666;stroke:#666666;" x="220.141111" xlink:href="#m792911a9d8" y="262.296694"/>
     <use style="fill:#666666;stroke:#666666;" x="222.207828" xlink:href="#m792911a9d8" y="260.699921"/>
     <use style="fill:#666666;stroke:#666666;" x="224.274545" xlink:href="#m792911a9d8" y="251.451675"/>
     <use style="fill:#666666;stroke:#666666;" x="226.341263" xlink:href="#m792911a9d8" y="247.297841"/>
     <use style="fill:#666666;stroke:#666666;" x="228.40798" xlink:href="#m792911a9d8" y="229.889536"/>
     <use style="fill:#666666;stroke:#666666;" x="230.474697" xlink:href="#m792911a9d8" y="212.662405"/>
     <use style="fill:#666666;stroke:#666666;" x="232.541414" xlink:href="#m792911a9d8" y="177.771566"/>
     <use style="fill:#666666;stroke:#666666;" x="234.608131" xlink:href="#m792911a9d8" y="91.628347"/>
     <use style="fill:#666666;stroke:#666666;" x="236.674848" xlink:href="#m792911a9d8" y="37.040588"/>
     <use style="fill:#666666;stroke:#666666;" x="238.741566" xlink:href="#m792911a9d8" y="25.796364"/>
     <use style="fill:#666666;stroke:#666666;" x="240.808283" xlink:href="#m792911a9d8" y="75.801323"/>
     <use style="fill:#666666;stroke:#666666;" x="242.875" xlink:href="#m792911a9d8" y="159.218005"/>
     <use style="fill:#666666;stroke:#666666;" x="244.941717" xlink:href="#m792911a9d8" y="258.884512"/>
     <use style="fill:#666666;stroke:#666666;" x="247.008434" xlink:href="#m792911a9d8" y="273.680047"/>
     <use style="fill:#666666;stroke:#666666;" x="249.075152" xlink:href="#m792911a9d8" y="263.796281"/>
     <use style="fill:#666666;stroke:#666666;" x="251.141869" xlink:href="#m792911a9d8" y="272.272906"/>
     <use style="fill:#666666;stroke:#666666;" x="253.208586" xlink:href="#m792911a9d8" y="263.865112"/>
     <use style="fill:#666666;stroke:#666666;" x="255.275303" xlink:href="#m792911a9d8" y="268.550637"/>
     <use style="fill:#666666;stroke:#666666;" x="257.34202" xlink:href="#m792911a9d8" y="264.43602"/>
     <use style="fill:#666666;stroke:#666666;" x="259.408737" xlink:href="#m792911a9d8" y="261.121228"/>
     <use style="fill:#666666;stroke:#666666;" x="261.475455" xlink:href="#m792911a9d8" y="234.290108"/>
     <use style="fill:#666666;stroke:#666666;" x="263.542172" xlink:href="#m792911a9d8" y="245.265103"/>
     <use style="fill:#666666;stroke:#666666;" x="265.608889" xlink:href="#m792911a9d8" y="250.246838"/>
     <use style="fill:#666666;stroke:#666666;" x="267.675606" xlink:href="#m792911a9d8" y="250.161969"/>
     <use style="fill:#666666;stroke:#666666;" x="269.742323" xlink:href="#m792911a9d8" y="256.212905"/>
     <use style="fill:#666666;stroke:#666666;" x="271.80904" xlink:href="#m792911a9d8" y="262.540144"/>
     <use style="fill:#666666;stroke:#666666;" x="273.875758" xlink:href="#m792911a9d8" y="259.467487"/>
     <use style="fill:#666666;stroke:#666666;" x="275.942475" xlink:href="#m792911a9d8" y="261.897758"/>
     <use style="fill:#666666;stroke:#666666;" x="278.009192" xlink:href="#m792911a9d8" y="257.546769"/>
     <use style="fill:#666666;stroke:#666666;" x="280.075909" xlink:href="#m792911a9d8" y="251.485327"/>
     <use style="fill:#666666;stroke:#666666;" x="282.142626" xlink:href="#m792911a9d8" y="245.391498"/>
     <use style="fill:#666666;stroke:#666666;" x="284.209343" xlink:href="#m792911a9d8" y="239.67236"/>
     <use style="fill:#666666;stroke:#666666;" x="286.276061" xlink:href="#m792911a9d8" y="246.602039"/>
     <use style="fill:#666666;stroke:#666666;" x="288.342778" xlink:href="#m792911a9d8" y="258.068689"/>
     <use style="fill:#666666;stroke:#666666;" x="290.409495" xlink:href="#m792911a9d8" y="261.423281"/>
     <use style="fill:#666666;stroke:#666666;" x="292.476212" xlink:href="#m792911a9d8" y="258.623601"/>
     <use style="fill:#666666;stroke:#666666;" x="294.542929" xlink:href="#m792911a9d8" y="268.359896"/>
     <use style="fill:#666666;stroke:#666666;" x="296.609646" xlink:href="#m792911a9d8" y="272.218613"/>
     <use style="fill:#666666;stroke:#666666;" x="298.676364" xlink:href="#m792911a9d8" y="266.113297"/>
     <use style="fill:#666666;stroke:#666666;" x="300.743081" xlink:href="#m792911a9d8" y="269.225532"/>
     <use style="fill:#666666;stroke:#666666;" x="302.809798" xlink:href="#m792911a9d8" y="260.936474"/>
     <use style="fill:#666666;stroke:#666666;" x="304.876515" xlink:href="#m792911a9d8" y="252.165044"/>
     <use style="fill:#666666;stroke:#666666;" x="306.943232" xlink:href="#m792911a9d8" y="234.400372"/>
     <use style="fill:#666666;stroke:#666666;" x="309.009949" xlink:href="#m792911a9d8" y="236.153143"/>
     <use style="fill:#666666;stroke:#666666;" x="311.076667" xlink:href="#m792911a9d8" y="229.145294"/>
     <use style="fill:#666666;stroke:#666666;" x="313.143384" xlink:href="#m792911a9d8" y="203.560228"/>
     <use style="fill:#666666;stroke:#666666;" x="315.210101" xlink:href="#m792911a9d8" y="169.91081"/>
     <use style="fill:#666666;stroke:#666666;" x="317.276818" xlink:href="#m792911a9d8" y="179.050527"/>
     <use style="fill:#666666;stroke:#666666;" x="319.343535" xlink:href="#m792911a9d8" y="209.538948"/>
     <use style="fill:#666666;stroke:#666666;" x="321.410253" xlink:href="#m792911a9d8" y="234.344998"/>
     <use style="fill:#666666;stroke:#666666;" x="323.47697" xlink:href="#m792911a9d8" y="248.822548"/>
     <use style="fill:#666666;stroke:#666666;" x="325.543687" xlink:href="#m792911a9d8" y="263.927554"/>
     <use style="fill:#666666;stroke:#666666;" x="327.610404" xlink:href="#m792911a9d8" y="267.711382"/>
     <use style="fill:#666666;stroke:#666666;" x="329.677121" xlink:href="#m792911a9d8" y="266.034331"/>
     <use style="fill:#666666;stroke:#666666;" x="331.743838" xlink:href="#m792911a9d8" y="266.414845"/>
     <use style="fill:#666666;stroke:#666666;" x="333.810556" xlink:href="#m792911a9d8" y="269.88201"/>
     <use style="fill:#666666;stroke:#666666;" x="335.877273" xlink:href="#m792911a9d8" y="270.134534"/>
     <use style="fill:#666666;stroke:#666666;" x="337.94399" xlink:href="#m792911a9d8" y="264.667293"/>
     <use style="fill:#666666;stroke:#666666;" x="340.010707" xlink:href="#m792911a9d8" y="259.000502"/>
     <use style="fill:#666666;stroke:#666666;" x="342.077424" xlink:href="#m792911a9d8" y="268.483295"/>
     <use style="fill:#666666;stroke:#666666;" x="344.144141" xlink:href="#m792911a9d8" y="272.434564"/>
     <use style="fill:#666666;stroke:#666666;" x="346.210859" xlink:href="#m792911a9d8" y="261.177785"/>
     <use style="fill:#666666;stroke:#666666;" x="348.277576" xlink:href="#m792911a9d8" y="234.972375"/>
     <use style="fill:#666666;stroke:#666666;" x="350.344293" xlink:href="#m792911a9d8" y="234.367386"/>
     <use style="fill:#666666;stroke:#666666;" x="352.41101" xlink:href="#m792911a9d8" y="234.61297"/>
     <use style="fill:#666666;stroke:#666666;" x="354.477727" xlink:href="#m792911a9d8" y="223.120035"/>
     <use style="fill:#666666;stroke:#666666;" x="356.544444" xlink:href="#m792911a9d8" y="245.608118"/>
     <use style="fill:#666666;stroke:#666666;" x="358.611162" xlink:href="#m792911a9d8" y="260.4444"/>
     <use style="fill:#666666;stroke:#666666;" x="360.677879" xlink:href="#m792911a9d8" y="252.386033"/>
     <use style="fill:#666666;stroke:#666666;" x="362.744596" xlink:href="#m792911a9d8" y="226.693355"/>
     <use style="fill:#666666;stroke:#666666;" x="364.811313" xlink:href="#m792911a9d8" y="210.21716"/>
     <use style="fill:#666666;stroke:#666666;" x="366.87803" xlink:href="#m792911a9d8" y="255.130524"/>
     <use style="fill:#666666;stroke:#666666;" x="368.944747" xlink:href="#m792911a9d8" y="266.614694"/>
     <use style="fill:#666666;stroke:#666666;" x="371.011465" xlink:href="#m792911a9d8" y="273.025358"/>
     <use style="fill:#666666;stroke:#666666;" x="373.078182" xlink:href="#m792911a9d8" y="270.913999"/>
     <use style="fill:#666666;stroke:#666666;" x="375.144899" xlink:href="#m792911a9d8" y="269.304993"/>
     <use style="fill:#666666;stroke:#666666;" x="377.211616" xlink:href="#m792911a9d8" y="274.596973"/>
     <use style="fill:#666666;stroke:#666666;" x="379.278333" xlink:href="#m792911a9d8" y="274.229591"/>
     <use style="fill:#666666;stroke:#666666;" x="381.345051" xlink:href="#m792911a9d8" y="271.693659"/>
     <use style="fill:#666666;stroke:#666666;" x="383.411768" xlink:href="#m792911a9d8" y="264.918235"/>
     <use style="fill:#666666;stroke:#666666;" x="385.478485" xlink:href="#m792911a9d8" y="254.704187"/>
     <use style="fill:#666666;stroke:#666666;" x="387.545202" xlink:href="#m792911a9d8" y="232.804311"/>
     <use style="fill:#666666;stroke:#666666;" x="389.611919" xlink:href="#m792911a9d8" y="206.796883"/>
     <use style="fill:#666666;stroke:#666666;" x="391.678636" xlink:href="#m792911a9d8" y="191.902407"/>
     <use style="fill:#666666;stroke:#666666;" x="393.745354" xlink:href="#m792911a9d8" y="227.768351"/>
     <use style="fill:#666666;stroke:#666666;" x="395.812071" xlink:href="#m792911a9d8" y="255.095656"/>
     <use style="fill:#666666;stroke:#666666;" x="397.878788" xlink:href="#m792911a9d8" y="256.029489"/>
     <use style="fill:#666666;stroke:#666666;" x="399.945505" xlink:href="#m792911a9d8" y="271.290771"/>
     <use style="fill:#666666;stroke:#666666;" x="402.012222" xlink:href="#m792911a9d8" y="268.421917"/>
     <use style="fill:#666666;stroke:#666666;" x="404.078939" xlink:href="#m792911a9d8" y="268.703217"/>
     <use style="fill:#666666;stroke:#666666;" x="406.145657" xlink:href="#m792911a9d8" y="268.326516"/>
     <use style="fill:#666666;stroke:#666666;" x="408.212374" xlink:href="#m792911a9d8" y="271.280707"/>
     <use style="fill:#666666;stroke:#666666;" x="410.279091" xlink:href="#m792911a9d8" y="272.050569"/>
     <use style="fill:#666666;stroke:#666666;" x="412.345808" xlink:href="#m792911a9d8" y="272.635908"/>
     <use style="fill:#666666;stroke:#666666;" x="414.412525" xlink:href="#m792911a9d8" y="272.764042"/>
     <use style="fill:#666666;stroke:#666666;" x="416.479242" xlink:href="#m792911a9d8" y="267.52441"/>
     <use style="fill:#666666;stroke:#666666;" x="418.54596" xlink:href="#m792911a9d8" y="258.685429"/>
     <use style="fill:#666666;stroke:#666666;" x="420.612677" xlink:href="#m792911a9d8" y="259.310751"/>
     <use style="fill:#666666;stroke:#666666;" x="422.679394" xlink:href="#m792911a9d8" y="260.008695"/>
     <use style="fill:#666666;stroke:#666666;" x="424.746111" xlink:href="#m792911a9d8" y="268.629682"/>
     <use style="fill:#666666;stroke:#666666;" x="426.812828" xlink:href="#m792911a9d8" y="252.4751"/>
     <use style="fill:#666666;stroke:#666666;" x="428.879545" xlink:href="#m792911a9d8" y="241.832021"/>
     <use style="fill:#666666;stroke:#666666;" x="430.946263" xlink:href="#m792911a9d8" y="262.375704"/>
     <use style="fill:#666666;stroke:#666666;" x="433.01298" xlink:href="#m792911a9d8" y="261.411488"/>
     <use style="fill:#666666;stroke:#666666;" x="435.079697" xlink:href="#m792911a9d8" y="235.061743"/>
     <use style="fill:#666666;stroke:#666666;" x="437.146414" xlink:href="#m792911a9d8" y="240.510052"/>
     <use style="fill:#666666;stroke:#666666;" x="439.213131" xlink:href="#m792911a9d8" y="244.315076"/>
     <use style="fill:#666666;stroke:#666666;" x="441.279848" xlink:href="#m792911a9d8" y="242.819929"/>
     <use style="fill:#666666;stroke:#666666;" x="443.346566" xlink:href="#m792911a9d8" y="231.047058"/>
     <use style="fill:#666666;stroke:#666666;" x="445.413283" xlink:href="#m792911a9d8" y="216.861486"/>
     <use style="fill:#666666;stroke:#666666;" x="447.48" xlink:href="#m792911a9d8" y="186.565939"/>
    </g>
   </g>
   <g id="patch_3">
    <path d="M 38.27 287.8 
L 38.27 13.32 
" style="fill:none;stroke:#000000;stroke-linecap:square;stroke-linejoin:miter;stroke-width:0.8;"/>
   </g>
   <g id="patch_4">
    <path d="M 447.48 287.8 
L 447.48 13.32 
" style="fill:none;stroke:#000000;stroke-linecap:square;stroke-linejoin:miter;stroke-width:0.8;"/>
   </g>
   <g id="patch_5">
    <path d="M 38.27 287.8 
L 447.48 287.8 
" style="fill:none;stroke:#000000;stroke-linecap:square;stroke-linejoin:miter;stroke-width:0.8;"/>
   </g>
   <g id="patch_6">
    <path d="M 38.27 13.32 
L 447.48 13.32 
" style="fill:none;stroke:#000000;stroke-linecap:square;stroke-linejoin:miter;stroke-width:0.8;"/>
   </g>
  </g>
 </g>
 <defs>
  <clipPath id="p9173464825">
   <rect height="274.48" width="409.21" x="38.27" y="13.32"/>
  </clipPath>
 </defs>
</svg>
