<?xml version="1.0" encoding="utf-8" standalone="no"?>
<!DOCTYPE svg PUBLIC "-//W3C//DTD SVG 1.1//EN"
  "http://www.w3.org/Graphics/SVG/1.1/DTD/svg11.dtd">
<!-- Created with matplotlib (http://matplotlib.org/) -->
<svg height="345.6pt" version="1.1" viewBox="0 0 460.8 345.6" width="460.8pt" xmlns="http://www.w3.org/2000/svg" xmlns:xlink="http://www.w3.org/1999/xlink">
 <defs>
  <style type="text/css">
*{stroke-linecap:butt;stroke-linejoin:round;}
  </style>
 </defs>
 <g id="figure_1">
  <g id="patch_1">
   <path d="M 0 345.6 
L 460.8 345.6 
L 460.8 0 
L 0 0 
z
" style="fill:#ffffff;"/>
  </g>
  <g id="axes_1">
   <g id="patch_2">
    <path d="M 47.72 287.8 
L 447.48 287.8 
L 447.48 13.32 
L 47.72 13.32 
z
" style="fill:#ffffff;"/>
   </g>
   <g id="matplotlib.axis_1">
    <g id="xtick_1">
     <g id="line2d_1">
      <defs>
       <path d="M 0 0 
L 0 3.5 
" id="mf1646d3da7" style="stroke:#000000;stroke-width:0.8;"/>
      </defs>
      <g>
       <use style="stroke:#000000;stroke-width:0.8;" x="47.72" xlink:href="#mf1646d3da7" y="287.8"/>
      </g>
     </g>
     <g id="text_1">
      <!-- A91 -->
      <defs>
       <path d="M 34.1875 63.1875 
L 20.796875 26.90625 
L 47.609375 26.90625 
z
M 28.609375 72.90625 
L 39.796875 72.90625 
L 67.578125 0 
L 57.328125 0 
L 50.6875 18.703125 
L 17.828125 18.703125 
L 11.1875 0 
L 0.78125 0 
z
" id="DejaVuSans-41"/>
       <path d="M 10.984375 1.515625 
L 10.984375 10.5 
Q 14.703125 8.734375 18.5 7.8125 
Q 22.3125 6.890625 25.984375 6.890625 
Q 35.75 6.890625 40.890625 13.453125 
Q 46.046875 20.015625 46.78125 33.40625 
Q 43.953125 29.203125 39.59375 26.953125 
Q 35.25 24.703125 29.984375 24.703125 
Q 19.046875 24.703125 12.671875 31.3125 
Q 6.296875 37.9375 6.296875 49.421875 
Q 6.296875 60.640625 12.9375 67.421875 
Q 19.578125 74.21875 30.609375 74.21875 
Q 43.265625 74.21875 49.921875 64.515625 
Q 56.59375 54.828125 56.59375 36.375 
Q 56.59375 19.140625 48.40625 8.859375 
Q 40.234375 -1.421875 26.421875 -1.421875 
Q 22.703125 -1.421875 18.890625 -0.6875 
Q 15.09375 0.046875 10.984375 1.515625 
z
M 30.609375 32.421875 
Q 37.25 32.421875 41.125 36.953125 
Q 45.015625 41.5 45.015625 49.421875 
Q 45.015625 57.28125 41.125 61.84375 
Q 37.25 66.40625 30.609375 66.40625 
Q 23.96875 66.40625 20.09375 61.84375 
Q 16.21875 57.28125 16.21875 49.421875 
Q 16.21875 41.5 20.09375 36.953125 
Q 23.96875 32.421875 30.609375 32.421875 
z
" id="DejaVuSans-39"/>
       <path d="M 12.40625 8.296875 
L 28.515625 8.296875 
L 28.515625 63.921875 
L 10.984375 60.40625 
L 10.984375 69.390625 
L 28.421875 72.90625 
L 38.28125 72.90625 
L 38.28125 8.296875 
L 54.390625 8.296875 
L 54.390625 0 
L 12.40625 0 
z
" id="DejaVuSans-31"/>
      </defs>
      <g transform="translate(50.479375 314.365625)rotate(-90)scale(0.1 -0.1)">
       <use xlink:href="#DejaVuSans-41"/>
       <use x="68.408203" xlink:href="#DejaVuSans-39"/>
       <use x="132.03125" xlink:href="#DejaVuSans-31"/>
      </g>
     </g>
    </g>
    <g id="xtick_2">
     <g id="line2d_2">
      <g>
       <use style="stroke:#000000;stroke-width:0.8;" x="63.871919" xlink:href="#mf1646d3da7" y="287.8"/>
      </g>
     </g>
     <g id="text_2">
      <!-- A99 -->
      <g transform="translate(66.631294 314.365625)rotate(-90)scale(0.1 -0.1)">
       <use xlink:href="#DejaVuSans-41"/>
       <use x="68.408203" xlink:href="#DejaVuSans-39"/>
       <use x="132.03125" xlink:href="#DejaVuSans-39"/>
      </g>
     </g>
    </g>
    <g id="xtick_3">
     <g id="line2d_3">
      <g>
       <use style="stroke:#000000;stroke-width:0.8;" x="80.023838" xlink:href="#mf1646d3da7" y="287.8"/>
      </g>
     </g>
     <g id="text_3">
      <!-- A107 -->
      <defs>
       <path d="M 31.78125 66.40625 
Q 24.171875 66.40625 20.328125 58.90625 
Q 16.5 51.421875 16.5 36.375 
Q 16.5 21.390625 20.328125 13.890625 
Q 24.171875 6.390625 31.78125 6.390625 
Q 39.453125 6.390625 43.28125 13.890625 
Q 47.125 21.390625 47.125 36.375 
Q 47.125 51.421875 43.28125 58.90625 
Q 39.453125 66.40625 31.78125 66.40625 
z
M 31.78125 74.21875 
Q 44.046875 74.21875 50.515625 64.515625 
Q 56.984375 54.828125 56.984375 36.375 
Q 56.984375 17.96875 50.515625 8.265625 
Q 44.046875 -1.421875 31.78125 -1.421875 
Q 19.53125 -1.421875 13.0625 8.265625 
Q 6.59375 17.96875 6.59375 36.375 
Q 6.59375 54.828125 13.0625 64.515625 
Q 19.53125 74.21875 31.78125 74.21875 
z
" id="DejaVuSans-30"/>
       <path d="M 8.203125 72.90625 
L 55.078125 72.90625 
L 55.078125 68.703125 
L 28.609375 0 
L 18.3125 0 
L 43.21875 64.59375 
L 8.203125 64.59375 
z
" id="DejaVuSans-37"/>
      </defs>
      <g transform="translate(82.783213 320.728125)rotate(-90)scale(0.1 -0.1)">
       <use xlink:href="#DejaVuSans-41"/>
       <use x="68.408203" xlink:href="#DejaVuSans-31"/>
       <use x="132.03125" xlink:href="#DejaVuSans-30"/>
       <use x="195.654297" xlink:href="#DejaVuSans-37"/>
      </g>
     </g>
    </g>
    <g id="xtick_4">
     <g id="line2d_4">
      <g>
       <use style="stroke:#000000;stroke-width:0.8;" x="96.175758" xlink:href="#mf1646d3da7" y="287.8"/>
      </g>
     </g>
     <g id="text_4">
      <!-- A115 -->
      <defs>
       <path d="M 10.796875 72.90625 
L 49.515625 72.90625 
L 49.515625 64.59375 
L 19.828125 64.59375 
L 19.828125 46.734375 
Q 21.96875 47.46875 24.109375 47.828125 
Q 26.265625 48.1875 28.421875 48.1875 
Q 40.625 48.1875 47.75 41.5 
Q 54.890625 34.8125 54.890625 23.390625 
Q 54.890625 11.625 47.5625 5.09375 
Q 40.234375 -1.421875 26.90625 -1.421875 
Q 22.3125 -1.421875 17.546875 -0.640625 
Q 12.796875 0.140625 7.71875 1.703125 
L 7.71875 11.625 
Q 12.109375 9.234375 16.796875 8.0625 
Q 21.484375 6.890625 26.703125 6.890625 
Q 35.15625 6.890625 40.078125 11.328125 
Q 45.015625 15.765625 45.015625 23.390625 
Q 45.015625 31 40.078125 35.4375 
Q 35.15625 39.890625 26.703125 39.890625 
Q 22.75 39.890625 18.8125 39.015625 
Q 14.890625 38.140625 10.796875 36.28125 
z
" id="DejaVuSans-35"/>
      </defs>
      <g transform="translate(98.935133 320.728125)rotate(-90)scale(0.1 -0.1)">
       <use xlink:href="#DejaVuSans-41"/>
       <use x="68.408203" xlink:href="#DejaVuSans-31"/>
       <use x="132.03125" xlink:href="#DejaVuSans-31"/>
       <use x="195.654297" xlink:href="#DejaVuSans-35"/>
      </g>
     </g>
    </g>
    <g id="xtick_5">
     <g id="line2d_5">
      <g>
       <use style="stroke:#000000;stroke-width:0.8;" x="112.327677" xlink:href="#mf1646d3da7" y="287.8"/>
      </g>
     </g>
     <g id="text_5">
      <!-- A123 -->
      <defs>
       <path d="M 19.1875 8.296875 
L 53.609375 8.296875 
L 53.609375 0 
L 7.328125 0 
L 7.328125 8.296875 
Q 12.9375 14.109375 22.625 23.890625 
Q 32.328125 33.6875 34.8125 36.53125 
Q 39.546875 41.84375 41.421875 45.53125 
Q 43.3125 49.21875 43.3125 52.78125 
Q 43.3125 58.59375 39.234375 62.25 
Q 35.15625 65.921875 28.609375 65.921875 
Q 23.96875 65.921875 18.8125 64.3125 
Q 13.671875 62.703125 7.8125 59.421875 
L 7.8125 69.390625 
Q 13.765625 71.78125 18.9375 73 
Q 24.125 74.21875 28.421875 74.21875 
Q 39.75 74.21875 46.484375 68.546875 
Q 53.21875 62.890625 53.21875 53.421875 
Q 53.21875 48.921875 51.53125 44.890625 
Q 49.859375 40.875 45.40625 35.40625 
Q 44.1875 33.984375 37.640625 27.21875 
Q 31.109375 20.453125 19.1875 8.296875 
z
" id="DejaVuSans-32"/>
       <path d="M 40.578125 39.3125 
Q 47.65625 37.796875 51.625 33 
Q 55.609375 28.21875 55.609375 21.1875 
Q 55.609375 10.40625 48.1875 4.484375 
Q 40.765625 -1.421875 27.09375 -1.421875 
Q 22.515625 -1.421875 17.65625 -0.515625 
Q 12.796875 0.390625 7.625 2.203125 
L 7.625 11.71875 
Q 11.71875 9.328125 16.59375 8.109375 
Q 21.484375 6.890625 26.8125 6.890625 
Q 36.078125 6.890625 40.9375 10.546875 
Q 45.796875 14.203125 45.796875 21.1875 
Q 45.796875 27.640625 41.28125 31.265625 
Q 36.765625 34.90625 28.71875 34.90625 
L 20.21875 34.90625 
L 20.21875 43.015625 
L 29.109375 43.015625 
Q 36.375 43.015625 40.234375 45.921875 
Q 44.09375 48.828125 44.09375 54.296875 
Q 44.09375 59.90625 40.109375 62.90625 
Q 36.140625 65.921875 28.71875 65.921875 
Q 24.65625 65.921875 20.015625 65.03125 
Q 15.375 64.15625 9.8125 62.3125 
L 9.8125 71.09375 
Q 15.4375 72.65625 20.34375 73.4375 
Q 25.25 74.21875 29.59375 74.21875 
Q 40.828125 74.21875 47.359375 69.109375 
Q 53.90625 64.015625 53.90625 55.328125 
Q 53.90625 49.265625 50.4375 45.09375 
Q 46.96875 40.921875 40.578125 39.3125 
z
" id="DejaVuSans-33"/>
      </defs>
      <g transform="translate(115.087052 320.728125)rotate(-90)scale(0.1 -0.1)">
       <use xlink:href="#DejaVuSans-41"/>
       <use x="68.408203" xlink:href="#DejaVuSans-31"/>
       <use x="132.03125" xlink:href="#DejaVuSans-32"/>
       <use x="195.654297" xlink:href="#DejaVuSans-33"/>
      </g>
     </g>
    </g>
    <g id="xtick_6">
     <g id="line2d_6">
      <g>
       <use style="stroke:#000000;stroke-width:0.8;" x="128.479596" xlink:href="#mf1646d3da7" y="287.8"/>
      </g>
     </g>
     <g id="text_6">
      <!-- A131 -->
      <g transform="translate(131.238971 320.728125)rotate(-90)scale(0.1 -0.1)">
       <use xlink:href="#DejaVuSans-41"/>
       <use x="68.408203" xlink:href="#DejaVuSans-31"/>
       <use x="132.03125" xlink:href="#DejaVuSans-33"/>
       <use x="195.654297" xlink:href="#DejaVuSans-31"/>
      </g>
     </g>
    </g>
    <g id="xtick_7">
     <g id="line2d_7">
      <g>
       <use style="stroke:#000000;stroke-width:0.8;" x="144.631515" xlink:href="#mf1646d3da7" y="287.8"/>
      </g>
     </g>
     <g id="text_7">
      <!-- A139 -->
      <g transform="translate(147.39089 320.728125)rotate(-90)scale(0.1 -0.1)">
       <use xlink:href="#DejaVuSans-41"/>
       <use x="68.408203" xlink:href="#DejaVuSans-31"/>
       <use x="132.03125" xlink:href="#DejaVuSans-33"/>
       <use x="195.654297" xlink:href="#DejaVuSans-39"/>
      </g>
     </g>
    </g>
    <g id="xtick_8">
     <g id="line2d_8">
      <g>
       <use style="stroke:#000000;stroke-width:0.8;" x="160.783434" xlink:href="#mf1646d3da7" y="287.8"/>
      </g>
     </g>
     <g id="text_8">
      <!-- A147 -->
      <defs>
       <path d="M 37.796875 64.3125 
L 12.890625 25.390625 
L 37.796875 25.390625 
z
M 35.203125 72.90625 
L 47.609375 72.90625 
L 47.609375 25.390625 
L 58.015625 25.390625 
L 58.015625 17.1875 
L 47.609375 17.1875 
L 47.609375 0 
L 37.796875 0 
L 37.796875 17.1875 
L 4.890625 17.1875 
L 4.890625 26.703125 
z
" id="DejaVuSans-34"/>
      </defs>
      <g transform="translate(163.542809 320.728125)rotate(-90)scale(0.1 -0.1)">
       <use xlink:href="#DejaVuSans-41"/>
       <use x="68.408203" xlink:href="#DejaVuSans-31"/>
       <use x="132.03125" xlink:href="#DejaVuSans-34"/>
       <use x="195.654297" xlink:href="#DejaVuSans-37"/>
      </g>
     </g>
    </g>
    <g id="xtick_9">
     <g id="line2d_9">
      <g>
       <use style="stroke:#000000;stroke-width:0.8;" x="176.935354" xlink:href="#mf1646d3da7" y="287.8"/>
      </g>
     </g>
     <g id="text_9">
      <!-- A155 -->
      <g transform="translate(179.694729 320.728125)rotate(-90)scale(0.1 -0.1)">
       <use xlink:href="#DejaVuSans-41"/>
       <use x="68.408203" xlink:href="#DejaVuSans-31"/>
       <use x="132.03125" xlink:href="#DejaVuSans-35"/>
       <use x="195.654297" xlink:href="#DejaVuSans-35"/>
      </g>
     </g>
    </g>
    <g id="xtick_10">
     <g id="line2d_10">
      <g>
       <use style="stroke:#000000;stroke-width:0.8;" x="193.087273" xlink:href="#mf1646d3da7" y="287.8"/>
      </g>
     </g>
     <g id="text_10">
      <!-- A163 -->
      <defs>
       <path d="M 33.015625 40.375 
Q 26.375 40.375 22.484375 35.828125 
Q 18.609375 31.296875 18.609375 23.390625 
Q 18.609375 15.53125 22.484375 10.953125 
Q 26.375 6.390625 33.015625 6.390625 
Q 39.65625 6.390625 43.53125 10.953125 
Q 47.40625 15.53125 47.40625 23.390625 
Q 47.40625 31.296875 43.53125 35.828125 
Q 39.65625 40.375 33.015625 40.375 
z
M 52.59375 71.296875 
L 52.59375 62.3125 
Q 48.875 64.0625 45.09375 64.984375 
Q 41.3125 65.921875 37.59375 65.921875 
Q 27.828125 65.921875 22.671875 59.328125 
Q 17.53125 52.734375 16.796875 39.40625 
Q 19.671875 43.65625 24.015625 45.921875 
Q 28.375 48.1875 33.59375 48.1875 
Q 44.578125 48.1875 50.953125 41.515625 
Q 57.328125 34.859375 57.328125 23.390625 
Q 57.328125 12.15625 50.6875 5.359375 
Q 44.046875 -1.421875 33.015625 -1.421875 
Q 20.359375 -1.421875 13.671875 8.265625 
Q 6.984375 17.96875 6.984375 36.375 
Q 6.984375 53.65625 15.1875 63.9375 
Q 23.390625 74.21875 37.203125 74.21875 
Q 40.921875 74.21875 44.703125 73.484375 
Q 48.484375 72.75 52.59375 71.296875 
z
" id="DejaVuSans-36"/>
      </defs>
      <g transform="translate(195.846648 320.728125)rotate(-90)scale(0.1 -0.1)">
       <use xlink:href="#DejaVuSans-41"/>
       <use x="68.408203" xlink:href="#DejaVuSans-31"/>
       <use x="132.03125" xlink:href="#DejaVuSans-36"/>
       <use x="195.654297" xlink:href="#DejaVuSans-33"/>
      </g>
     </g>
    </g>
    <g id="xtick_11">
     <g id="line2d_11">
      <g>
       <use style="stroke:#000000;stroke-width:0.8;" x="209.239192" xlink:href="#mf1646d3da7" y="287.8"/>
      </g>
     </g>
     <g id="text_11">
      <!-- A171 -->
      <g transform="translate(211.998567 320.728125)rotate(-90)scale(0.1 -0.1)">
       <use xlink:href="#DejaVuSans-41"/>
       <use x="68.408203" xlink:href="#DejaVuSans-31"/>
       <use x="132.03125" xlink:href="#DejaVuSans-37"/>
       <use x="195.654297" xlink:href="#DejaVuSans-31"/>
      </g>
     </g>
    </g>
    <g id="xtick_12">
     <g id="line2d_12">
      <g>
       <use style="stroke:#000000;stroke-width:0.8;" x="225.391111" xlink:href="#mf1646d3da7" y="287.8"/>
      </g>
     </g>
     <g id="text_12">
      <!-- A179 -->
      <g transform="translate(228.150486 320.728125)rotate(-90)scale(0.1 -0.1)">
       <use xlink:href="#DejaVuSans-41"/>
       <use x="68.408203" xlink:href="#DejaVuSans-31"/>
       <use x="132.03125" xlink:href="#DejaVuSans-37"/>
       <use x="195.654297" xlink:href="#DejaVuSans-39"/>
      </g>
     </g>
    </g>
    <g id="xtick_13">
     <g id="line2d_13">
      <g>
       <use style="stroke:#000000;stroke-width:0.8;" x="241.54303" xlink:href="#mf1646d3da7" y="287.8"/>
      </g>
     </g>
     <g id="text_13">
      <!-- A187 -->
      <defs>
       <path d="M 31.78125 34.625 
Q 24.75 34.625 20.71875 30.859375 
Q 16.703125 27.09375 16.703125 20.515625 
Q 16.703125 13.921875 20.71875 10.15625 
Q 24.75 6.390625 31.78125 6.390625 
Q 38.8125 6.390625 42.859375 10.171875 
Q 46.921875 13.96875 46.921875 20.515625 
Q 46.921875 27.09375 42.890625 30.859375 
Q 38.875 34.625 31.78125 34.625 
z
M 21.921875 38.8125 
Q 15.578125 40.375 12.03125 44.71875 
Q 8.5 49.078125 8.5 55.328125 
Q 8.5 64.0625 14.71875 69.140625 
Q 20.953125 74.21875 31.78125 74.21875 
Q 42.671875 74.21875 48.875 69.140625 
Q 55.078125 64.0625 55.078125 55.328125 
Q 55.078125 49.078125 51.53125 44.71875 
Q 48 40.375 41.703125 38.8125 
Q 48.828125 37.15625 52.796875 32.3125 
Q 56.78125 27.484375 56.78125 20.515625 
Q 56.78125 9.90625 50.3125 4.234375 
Q 43.84375 -1.421875 31.78125 -1.421875 
Q 19.734375 -1.421875 13.25 4.234375 
Q 6.78125 9.90625 6.78125 20.515625 
Q 6.78125 27.484375 10.78125 32.3125 
Q 14.796875 37.15625 21.921875 38.8125 
z
M 18.3125 54.390625 
Q 18.3125 48.734375 21.84375 45.5625 
Q 25.390625 42.390625 31.78125 42.390625 
Q 38.140625 42.390625 41.71875 45.5625 
Q 45.3125 48.734375 45.3125 54.390625 
Q 45.3125 60.0625 41.71875 63.234375 
Q 38.140625 66.40625 31.78125 66.40625 
Q 25.390625 66.40625 21.84375 63.234375 
Q 18.3125 60.0625 18.3125 54.390625 
z
" id="DejaVuSans-38"/>
      </defs>
      <g transform="translate(244.302405 320.728125)rotate(-90)scale(0.1 -0.1)">
       <use xlink:href="#DejaVuSans-41"/>
       <use x="68.408203" xlink:href="#DejaVuSans-31"/>
       <use x="132.03125" xlink:href="#DejaVuSans-38"/>
       <use x="195.654297" xlink:href="#DejaVuSans-37"/>
      </g>
     </g>
    </g>
    <g id="xtick_14">
     <g id="line2d_14">
      <g>
       <use style="stroke:#000000;stroke-width:0.8;" x="257.694949" xlink:href="#mf1646d3da7" y="287.8"/>
      </g>
     </g>
     <g id="text_14">
      <!-- A195 -->
      <g transform="translate(260.454324 320.728125)rotate(-90)scale(0.1 -0.1)">
       <use xlink:href="#DejaVuSans-41"/>
       <use x="68.408203" xlink:href="#DejaVuSans-31"/>
       <use x="132.03125" xlink:href="#DejaVuSans-39"/>
       <use x="195.654297" xlink:href="#DejaVuSans-35"/>
      </g>
     </g>
    </g>
    <g id="xtick_15">
     <g id="line2d_15">
      <g>
       <use style="stroke:#000000;stroke-width:0.8;" x="273.846869" xlink:href="#mf1646d3da7" y="287.8"/>
      </g>
     </g>
     <g id="text_15">
      <!-- A203 -->
      <g transform="translate(276.606244 320.728125)rotate(-90)scale(0.1 -0.1)">
       <use xlink:href="#DejaVuSans-41"/>
       <use x="68.408203" xlink:href="#DejaVuSans-32"/>
       <use x="132.03125" xlink:href="#DejaVuSans-30"/>
       <use x="195.654297" xlink:href="#DejaVuSans-33"/>
      </g>
     </g>
    </g>
    <g id="xtick_16">
     <g id="line2d_16">
      <g>
       <use style="stroke:#000000;stroke-width:0.8;" x="289.998788" xlink:href="#mf1646d3da7" y="287.8"/>
      </g>
     </g>
     <g id="text_16">
      <!-- A211 -->
      <g transform="translate(292.758163 320.728125)rotate(-90)scale(0.1 -0.1)">
       <use xlink:href="#DejaVuSans-41"/>
       <use x="68.408203" xlink:href="#DejaVuSans-32"/>
       <use x="132.03125" xlink:href="#DejaVuSans-31"/>
       <use x="195.654297" xlink:href="#DejaVuSans-31"/>
      </g>
     </g>
    </g>
    <g id="xtick_17">
     <g id="line2d_17">
      <g>
       <use style="stroke:#000000;stroke-width:0.8;" x="306.150707" xlink:href="#mf1646d3da7" y="287.8"/>
      </g>
     </g>
     <g id="text_17">
      <!-- A219 -->
      <g transform="translate(308.910082 320.728125)rotate(-90)scale(0.1 -0.1)">
       <use xlink:href="#DejaVuSans-41"/>
       <use x="68.408203" xlink:href="#DejaVuSans-32"/>
       <use x="132.03125" xlink:href="#DejaVuSans-31"/>
       <use x="195.654297" xlink:href="#DejaVuSans-39"/>
      </g>
     </g>
    </g>
    <g id="xtick_18">
     <g id="line2d_18">
      <g>
       <use style="stroke:#000000;stroke-width:0.8;" x="322.302626" xlink:href="#mf1646d3da7" y="287.8"/>
      </g>
     </g>
     <g id="text_18">
      <!-- A227 -->
      <g transform="translate(325.062001 320.728125)rotate(-90)scale(0.1 -0.1)">
       <use xlink:href="#DejaVuSans-41"/>
       <use x="68.408203" xlink:href="#DejaVuSans-32"/>
       <use x="132.03125" xlink:href="#DejaVuSans-32"/>
       <use x="195.654297" xlink:href="#DejaVuSans-37"/>
      </g>
     </g>
    </g>
    <g id="xtick_19">
     <g id="line2d_19">
      <g>
       <use style="stroke:#000000;stroke-width:0.8;" x="338.454545" xlink:href="#mf1646d3da7" y="287.8"/>
      </g>
     </g>
     <g id="text_19">
      <!-- A235 -->
      <g transform="translate(341.21392 320.728125)rotate(-90)scale(0.1 -0.1)">
       <use xlink:href="#DejaVuSans-41"/>
       <use x="68.408203" xlink:href="#DejaVuSans-32"/>
       <use x="132.03125" xlink:href="#DejaVuSans-33"/>
       <use x="195.654297" xlink:href="#DejaVuSans-35"/>
      </g>
     </g>
    </g>
    <g id="xtick_20">
     <g id="line2d_20">
      <g>
       <use style="stroke:#000000;stroke-width:0.8;" x="354.606465" xlink:href="#mf1646d3da7" y="287.8"/>
      </g>
     </g>
     <g id="text_20">
      <!-- A243 -->
      <g transform="translate(357.36584 320.728125)rotate(-90)scale(0.1 -0.1)">
       <use xlink:href="#DejaVuSans-41"/>
       <use x="68.408203" xlink:href="#DejaVuSans-32"/>
       <use x="132.03125" xlink:href="#DejaVuSans-34"/>
       <use x="195.654297" xlink:href="#DejaVuSans-33"/>
      </g>
     </g>
    </g>
    <g id="xtick_21">
     <g id="line2d_21">
      <g>
       <use style="stroke:#000000;stroke-width:0.8;" x="370.758384" xlink:href="#mf1646d3da7" y="287.8"/>
      </g>
     </g>
     <g id="text_21">
      <!-- A251 -->
      <g transform="translate(373.517759 320.728125)rotate(-90)scale(0.1 -0.1)">
       <use xlink:href="#DejaVuSans-41"/>
       <use x="68.408203" xlink:href="#DejaVuSans-32"/>
       <use x="132.03125" xlink:href="#DejaVuSans-35"/>
       <use x="195.654297" xlink:href="#DejaVuSans-31"/>
      </g>
     </g>
    </g>
    <g id="xtick_22">
     <g id="line2d_22">
      <g>
       <use style="stroke:#000000;stroke-width:0.8;" x="386.910303" xlink:href="#mf1646d3da7" y="287.8"/>
      </g>
     </g>
     <g id="text_22">
      <!-- A259 -->
      <g transform="translate(389.669678 320.728125)rotate(-90)scale(0.1 -0.1)">
       <use xlink:href="#DejaVuSans-41"/>
       <use x="68.408203" xlink:href="#DejaVuSans-32"/>
       <use x="132.03125" xlink:href="#DejaVuSans-35"/>
       <use x="195.654297" xlink:href="#DejaVuSans-39"/>
      </g>
     </g>
    </g>
    <g id="xtick_23">
     <g id="line2d_23">
      <g>
       <use style="stroke:#000000;stroke-width:0.8;" x="403.062222" xlink:href="#mf1646d3da7" y="287.8"/>
      </g>
     </g>
     <g id="text_23">
      <!-- A267 -->
      <g transform="translate(405.821597 320.728125)rotate(-90)scale(0.1 -0.1)">
       <use xlink:href="#DejaVuSans-41"/>
       <use x="68.408203" xlink:href="#DejaVuSans-32"/>
       <use x="132.03125" xlink:href="#DejaVuSans-36"/>
       <use x="195.654297" xlink:href="#DejaVuSans-37"/>
      </g>
     </g>
    </g>
    <g id="xtick_24">
     <g id="line2d_24">
      <g>
       <use style="stroke:#000000;stroke-width:0.8;" x="419.214141" xlink:href="#mf1646d3da7" y="287.8"/>
      </g>
     </g>
     <g id="text_24">
      <!-- A275 -->
      <g transform="translate(421.973516 320.728125)rotate(-90)scale(0.1 -0.1)">
       <use xlink:href="#DejaVuSans-41"/>
       <use x="68.408203" xlink:href="#DejaVuSans-32"/>
       <use x="132.03125" xlink:href="#DejaVuSans-37"/>
       <use x="195.654297" xlink:href="#DejaVuSans-35"/>
      </g>
     </g>
    </g>
    <g id="xtick_25">
     <g id="line2d_25">
      <g>
       <use style="stroke:#000000;stroke-width:0.8;" x="435.366061" xlink:href="#mf1646d3da7" y="287.8"/>
      </g>
     </g>
     <g id="text_25">
      <!-- A283 -->
      <g transform="translate(438.125436 320.728125)rotate(-90)scale(0.1 -0.1)">
       <use xlink:href="#DejaVuSans-41"/>
       <use x="68.408203" xlink:href="#DejaVuSans-32"/>
       <use x="132.03125" xlink:href="#DejaVuSans-38"/>
       <use x="195.654297" xlink:href="#DejaVuSans-33"/>
      </g>
     </g>
    </g>
    <g id="text_26">
     <!-- Residue index -->
     <defs>
      <path d="M 44.390625 34.1875 
Q 47.5625 33.109375 50.5625 29.59375 
Q 53.5625 26.078125 56.59375 19.921875 
L 66.609375 0 
L 56 0 
L 46.6875 18.703125 
Q 43.0625 26.03125 39.671875 28.421875 
Q 36.28125 30.8125 30.421875 30.8125 
L 19.671875 30.8125 
L 19.671875 0 
L 9.8125 0 
L 9.8125 72.90625 
L 32.078125 72.90625 
Q 44.578125 72.90625 50.734375 67.671875 
Q 56.890625 62.453125 56.890625 51.90625 
Q 56.890625 45.015625 53.6875 40.46875 
Q 50.484375 35.9375 44.390625 34.1875 
z
M 19.671875 64.796875 
L 19.671875 38.921875 
L 32.078125 38.921875 
Q 39.203125 38.921875 42.84375 42.21875 
Q 46.484375 45.515625 46.484375 51.90625 
Q 46.484375 58.296875 42.84375 61.546875 
Q 39.203125 64.796875 32.078125 64.796875 
z
" id="DejaVuSans-52"/>
      <path d="M 56.203125 29.59375 
L 56.203125 25.203125 
L 14.890625 25.203125 
Q 15.484375 15.921875 20.484375 11.0625 
Q 25.484375 6.203125 34.421875 6.203125 
Q 39.59375 6.203125 44.453125 7.46875 
Q 49.3125 8.734375 54.109375 11.28125 
L 54.109375 2.78125 
Q 49.265625 0.734375 44.1875 -0.34375 
Q 39.109375 -1.421875 33.890625 -1.421875 
Q 20.796875 -1.421875 13.15625 6.1875 
Q 5.515625 13.8125 5.515625 26.8125 
Q 5.515625 40.234375 12.765625 48.109375 
Q 20.015625 56 32.328125 56 
Q 43.359375 56 49.78125 48.890625 
Q 56.203125 41.796875 56.203125 29.59375 
z
M 47.21875 32.234375 
Q 47.125 39.59375 43.09375 43.984375 
Q 39.0625 48.390625 32.421875 48.390625 
Q 24.90625 48.390625 20.390625 44.140625 
Q 15.875 39.890625 15.1875 32.171875 
z
" id="DejaVuSans-65"/>
      <path d="M 44.28125 53.078125 
L 44.28125 44.578125 
Q 40.484375 46.53125 36.375 47.5 
Q 32.28125 48.484375 27.875 48.484375 
Q 21.1875 48.484375 17.84375 46.4375 
Q 14.5 44.390625 14.5 40.28125 
Q 14.5 37.15625 16.890625 35.375 
Q 19.28125 33.59375 26.515625 31.984375 
L 29.59375 31.296875 
Q 39.15625 29.25 43.1875 25.515625 
Q 47.21875 21.78125 47.21875 15.09375 
Q 47.21875 7.46875 41.1875 3.015625 
Q 35.15625 -1.421875 24.609375 -1.421875 
Q 20.21875 -1.421875 15.453125 -0.5625 
Q 10.6875 0.296875 5.421875 2 
L 5.421875 11.28125 
Q 10.40625 8.6875 15.234375 7.390625 
Q 20.0625 6.109375 24.8125 6.109375 
Q 31.15625 6.109375 34.5625 8.28125 
Q 37.984375 10.453125 37.984375 14.40625 
Q 37.984375 18.0625 35.515625 20.015625 
Q 33.0625 21.96875 24.703125 23.78125 
L 21.578125 24.515625 
Q 13.234375 26.265625 9.515625 29.90625 
Q 5.8125 33.546875 5.8125 39.890625 
Q 5.8125 47.609375 11.28125 51.796875 
Q 16.75 56 26.8125 56 
Q 31.78125 56 36.171875 55.265625 
Q 40.578125 54.546875 44.28125 53.078125 
z
" id="DejaVuSans-73"/>
      <path d="M 9.421875 54.6875 
L 18.40625 54.6875 
L 18.40625 0 
L 9.421875 0 
z
M 9.421875 75.984375 
L 18.40625 75.984375 
L 18.40625 64.59375 
L 9.421875 64.59375 
z
" id="DejaVuSans-69"/>
      <path d="M 45.40625 46.390625 
L 45.40625 75.984375 
L 54.390625 75.984375 
L 54.390625 0 
L 45.40625 0 
L 45.40625 8.203125 
Q 42.578125 3.328125 38.25 0.953125 
Q 33.9375 -1.421875 27.875 -1.421875 
Q 17.96875 -1.421875 11.734375 6.484375 
Q 5.515625 14.40625 5.515625 27.296875 
Q 5.515625 40.1875 11.734375 48.09375 
Q 17.96875 56 27.875 56 
Q 33.9375 56 38.25 53.625 
Q 42.578125 51.265625 45.40625 46.390625 
z
M 14.796875 27.296875 
Q 14.796875 17.390625 18.875 11.75 
Q 22.953125 6.109375 30.078125 6.109375 
Q 37.203125 6.109375 41.296875 11.75 
Q 45.40625 17.390625 45.40625 27.296875 
Q 45.40625 37.203125 41.296875 42.84375 
Q 37.203125 48.484375 30.078125 48.484375 
Q 22.953125 48.484375 18.875 42.84375 
Q 14.796875 37.203125 14.796875 27.296875 
z
" id="DejaVuSans-64"/>
      <path d="M 8.5 21.578125 
L 8.5 54.6875 
L 17.484375 54.6875 
L 17.484375 21.921875 
Q 17.484375 14.15625 20.5 10.265625 
Q 23.53125 6.390625 29.59375 6.390625 
Q 36.859375 6.390625 41.078125 11.03125 
Q 45.3125 15.671875 45.3125 23.6875 
L 45.3125 54.6875 
L 54.296875 54.6875 
L 54.296875 0 
L 45.3125 0 
L 45.3125 8.40625 
Q 42.046875 3.421875 37.71875 1 
Q 33.40625 -1.421875 27.6875 -1.421875 
Q 18.265625 -1.421875 13.375 4.4375 
Q 8.5 10.296875 8.5 21.578125 
z
M 31.109375 56 
z
" id="DejaVuSans-75"/>
      <path id="DejaVuSans-20"/>
      <path d="M 54.890625 33.015625 
L 54.890625 0 
L 45.90625 0 
L 45.90625 32.71875 
Q 45.90625 40.484375 42.875 44.328125 
Q 39.84375 48.1875 33.796875 48.1875 
Q 26.515625 48.1875 22.3125 43.546875 
Q 18.109375 38.921875 18.109375 30.90625 
L 18.109375 0 
L 9.078125 0 
L 9.078125 54.6875 
L 18.109375 54.6875 
L 18.109375 46.1875 
Q 21.34375 51.125 25.703125 53.5625 
Q 30.078125 56 35.796875 56 
Q 45.21875 56 50.046875 50.171875 
Q 54.890625 44.34375 54.890625 33.015625 
z
" id="DejaVuSans-6e"/>
      <path d="M 54.890625 54.6875 
L 35.109375 28.078125 
L 55.90625 0 
L 45.3125 0 
L 29.390625 21.484375 
L 13.484375 0 
L 2.875 0 
L 24.125 28.609375 
L 4.6875 54.6875 
L 15.28125 54.6875 
L 29.78125 35.203125 
L 44.28125 54.6875 
z
" id="DejaVuSans-78"/>
     </defs>
     <g transform="translate(212.282812 332.326562)scale(0.1 -0.1)">
      <use xlink:href="#DejaVuSans-52"/>
      <use x="69.419922" xlink:href="#DejaVuSans-65"/>
      <use x="130.943359" xlink:href="#DejaVuSans-73"/>
      <use x="183.042969" xlink:href="#DejaVuSans-69"/>
      <use x="210.826172" xlink:href="#DejaVuSans-64"/>
      <use x="274.302734" xlink:href="#DejaVuSans-75"/>
      <use x="337.681641" xlink:href="#DejaVuSans-65"/>
      <use x="399.205078" xlink:href="#DejaVuSans-20"/>
      <use x="430.992188" xlink:href="#DejaVuSans-69"/>
      <use x="458.775391" xlink:href="#DejaVuSans-6e"/>
      <use x="522.154297" xlink:href="#DejaVuSans-64"/>
      <use x="585.630859" xlink:href="#DejaVuSans-65"/>
      <use x="647.138672" xlink:href="#DejaVuSans-78"/>
     </g>
    </g>
   </g>
   <g id="matplotlib.axis_2">
    <g id="ytick_1">
     <g id="line2d_26">
      <defs>
       <path d="M 0 0 
L -3.5 0 
" id="mefff781bd7" style="stroke:#000000;stroke-width:0.8;"/>
      </defs>
      <g>
       <use style="stroke:#000000;stroke-width:0.8;" x="47.72" xlink:href="#mefff781bd7" y="249.721799"/>
      </g>
     </g>
     <g id="text_27">
      <!-- 0.5 -->
      <defs>
       <path d="M 10.6875 12.40625 
L 21 12.40625 
L 21 0 
L 10.6875 0 
z
" id="DejaVuSans-2e"/>
      </defs>
      <g transform="translate(24.816875 253.521018)scale(0.1 -0.1)">
       <use xlink:href="#DejaVuSans-30"/>
       <use x="63.623047" xlink:href="#DejaVuSans-2e"/>
       <use x="95.410156" xlink:href="#DejaVuSans-35"/>
      </g>
     </g>
    </g>
    <g id="ytick_2">
     <g id="line2d_27">
      <g>
       <use style="stroke:#000000;stroke-width:0.8;" x="47.72" xlink:href="#mefff781bd7" y="210.979642"/>
      </g>
     </g>
     <g id="text_28">
      <!-- 1.0 -->
      <g transform="translate(24.816875 214.778861)scale(0.1 -0.1)">
       <use xlink:href="#DejaVuSans-31"/>
       <use x="63.623047" xlink:href="#DejaVuSans-2e"/>
       <use x="95.410156" xlink:href="#DejaVuSans-30"/>
      </g>
     </g>
    </g>
    <g id="ytick_3">
     <g id="line2d_28">
      <g>
       <use style="stroke:#000000;stroke-width:0.8;" x="47.72" xlink:href="#mefff781bd7" y="172.237486"/>
      </g>
     </g>
     <g id="text_29">
      <!-- 1.5 -->
      <g transform="translate(24.816875 176.036704)scale(0.1 -0.1)">
       <use xlink:href="#DejaVuSans-31"/>
       <use x="63.623047" xlink:href="#DejaVuSans-2e"/>
       <use x="95.410156" xlink:href="#DejaVuSans-35"/>
      </g>
     </g>
    </g>
    <g id="ytick_4">
     <g id="line2d_29">
      <g>
       <use style="stroke:#000000;stroke-width:0.8;" x="47.72" xlink:href="#mefff781bd7" y="133.495329"/>
      </g>
     </g>
     <g id="text_30">
      <!-- 2.0 -->
      <g transform="translate(24.816875 137.294548)scale(0.1 -0.1)">
       <use xlink:href="#DejaVuSans-32"/>
       <use x="63.623047" xlink:href="#DejaVuSans-2e"/>
       <use x="95.410156" xlink:href="#DejaVuSans-30"/>
      </g>
     </g>
    </g>
    <g id="ytick_5">
     <g id="line2d_30">
      <g>
       <use style="stroke:#000000;stroke-width:0.8;" x="47.72" xlink:href="#mefff781bd7" y="94.753172"/>
      </g>
     </g>
     <g id="text_31">
      <!-- 2.5 -->
      <g transform="translate(24.816875 98.552391)scale(0.1 -0.1)">
       <use xlink:href="#DejaVuSans-32"/>
       <use x="63.623047" xlink:href="#DejaVuSans-2e"/>
       <use x="95.410156" xlink:href="#DejaVuSans-35"/>
      </g>
     </g>
    </g>
    <g id="ytick_6">
     <g id="line2d_31">
      <g>
       <use style="stroke:#000000;stroke-width:0.8;" x="47.72" xlink:href="#mefff781bd7" y="56.011016"/>
      </g>
     </g>
     <g id="text_32">
      <!-- 3.0 -->
      <g transform="translate(24.816875 59.810235)scale(0.1 -0.1)">
       <use xlink:href="#DejaVuSans-33"/>
       <use x="63.623047" xlink:href="#DejaVuSans-2e"/>
       <use x="95.410156" xlink:href="#DejaVuSans-30"/>
      </g>
     </g>
    </g>
    <g id="ytick_7">
     <g id="line2d_32">
      <g>
       <use style="stroke:#000000;stroke-width:0.8;" x="47.72" xlink:href="#mefff781bd7" y="17.268859"/>
      </g>
     </g>
     <g id="text_33">
      <!-- 3.5 -->
      <g transform="translate(24.816875 21.068078)scale(0.1 -0.1)">
       <use xlink:href="#DejaVuSans-33"/>
       <use x="63.623047" xlink:href="#DejaVuSans-2e"/>
       <use x="95.410156" xlink:href="#DejaVuSans-35"/>
      </g>
     </g>
    </g>
    <g id="text_34">
     <!-- RMSF -->
     <defs>
      <path d="M 9.8125 72.90625 
L 24.515625 72.90625 
L 43.109375 23.296875 
L 61.8125 72.90625 
L 76.515625 72.90625 
L 76.515625 0 
L 66.890625 0 
L 66.890625 64.015625 
L 48.09375 14.015625 
L 38.1875 14.015625 
L 19.390625 64.015625 
L 19.390625 0 
L 9.8125 0 
z
" id="DejaVuSans-4d"/>
      <path d="M 53.515625 70.515625 
L 53.515625 60.890625 
Q 47.90625 63.578125 42.921875 64.890625 
Q 37.9375 66.21875 33.296875 66.21875 
Q 25.25 66.21875 20.875 63.09375 
Q 16.5 59.96875 16.5 54.203125 
Q 16.5 49.359375 19.40625 46.890625 
Q 22.3125 44.4375 30.421875 42.921875 
L 36.375 41.703125 
Q 47.40625 39.59375 52.65625 34.296875 
Q 57.90625 29 57.90625 20.125 
Q 57.90625 9.515625 50.796875 4.046875 
Q 43.703125 -1.421875 29.984375 -1.421875 
Q 24.8125 -1.421875 18.96875 -0.25 
Q 13.140625 0.921875 6.890625 3.21875 
L 6.890625 13.375 
Q 12.890625 10.015625 18.65625 8.296875 
Q 24.421875 6.59375 29.984375 6.59375 
Q 38.421875 6.59375 43.015625 9.90625 
Q 47.609375 13.234375 47.609375 19.390625 
Q 47.609375 24.75 44.3125 27.78125 
Q 41.015625 30.8125 33.5 32.328125 
L 27.484375 33.5 
Q 16.453125 35.6875 11.515625 40.375 
Q 6.59375 45.0625 6.59375 53.421875 
Q 6.59375 63.09375 13.40625 68.65625 
Q 20.21875 74.21875 32.171875 74.21875 
Q 37.3125 74.21875 42.625 73.28125 
Q 47.953125 72.359375 53.515625 70.515625 
z
" id="DejaVuSans-53"/>
      <path d="M 9.8125 72.90625 
L 51.703125 72.90625 
L 51.703125 64.59375 
L 19.671875 64.59375 
L 19.671875 43.109375 
L 48.578125 43.109375 
L 48.578125 34.8125 
L 19.671875 34.8125 
L 19.671875 0 
L 9.8125 0 
z
" id="DejaVuSans-46"/>
     </defs>
     <g transform="translate(18.737188 164.398281)rotate(-90)scale(0.1 -0.1)">
      <use xlink:href="#DejaVuSans-52"/>
      <use x="69.482422" xlink:href="#DejaVuSans-4d"/>
      <use x="155.761719" xlink:href="#DejaVuSans-53"/>
      <use x="219.238281" xlink:href="#DejaVuSans-46"/>
     </g>
    </g>
   </g>
   <g id="line2d_33">
    <path clip-path="url(#p1c7d6f7343)" d="M 47.72 73.083978 
L 49.73899 189.634009 
L 51.75798 168.937093 
L 53.77697 125.890222 
L 55.79596 153.422437 
L 57.814949 133.713629 
L 59.833939 161.479237 
L 61.852929 128.922731 
L 63.871919 148.523515 
L 67.909899 209.077093 
L 69.928889 218.744433 
L 71.947879 217.214164 
L 73.966869 217.586144 
L 75.985859 172.448611 
L 78.004848 182.07864 
L 80.023838 204.530612 
L 82.042828 192.505091 
L 84.061818 196.664267 
L 86.080808 259.662301 
L 88.099798 229.463773 
L 90.118788 232.435885 
L 92.137778 256.567332 
L 94.156768 238.118419 
L 96.175758 224.869468 
L 98.194747 226.48692 
L 100.213737 204.162094 
L 102.232727 180.083105 
L 104.251717 83.16474 
L 106.270707 25.796364 
L 108.289697 143.841745 
L 110.308687 205.154357 
L 112.327677 251.038125 
L 114.346667 255.862112 
L 116.365657 264.639284 
L 118.384646 266.073455 
L 120.403636 253.36803 
L 122.422626 227.397861 
L 124.441616 154.512362 
L 126.460606 156.438401 
L 128.479596 215.113588 
L 130.498586 259.578046 
L 132.517576 270.950036 
L 134.536566 260.6533 
L 136.555556 257.744059 
L 138.574545 256.510705 
L 140.593535 231.44319 
L 142.612525 181.318185 
L 144.631515 236.642785 
L 146.650505 212.614024 
L 148.669495 253.267199 
L 150.688485 252.029265 
L 152.707475 260.126597 
L 154.726465 267.360835 
L 156.745455 267.0865 
L 158.764444 253.999944 
L 160.783434 248.549669 
L 164.821414 212.713885 
L 166.840404 215.636111 
L 168.859394 191.85653 
L 170.878384 173.297026 
L 172.897374 183.314365 
L 174.916364 210.806262 
L 176.935354 234.917363 
L 178.954343 261.49716 
L 180.973333 268.204656 
L 182.992323 269.71046 
L 185.011313 263.273311 
L 187.030303 259.578447 
L 189.049293 256.644598 
L 191.068283 268.430084 
L 193.087273 264.811168 
L 195.106263 257.499617 
L 197.125253 232.993227 
L 199.144242 174.48258 
L 201.163232 140.16426 
L 203.182222 140.984534 
L 205.201212 139.061764 
L 207.220202 201.25415 
L 209.239192 221.7613 
L 211.258182 229.809151 
L 213.277172 237.217683 
L 215.296162 245.844969 
L 217.315152 232.755437 
L 219.334141 247.296771 
L 221.353131 207.596998 
L 223.372121 195.154821 
L 225.391111 214.467123 
L 227.410101 203.877131 
L 229.429091 207.262408 
L 231.448081 197.452866 
L 233.467071 159.498822 
L 235.486061 173.796236 
L 237.505051 162.683412 
L 239.52404 74.725958 
L 241.54303 27.968085 
L 243.56202 79.657528 
L 245.58101 96.347828 
L 247.6 106.518545 
L 249.61899 159.52103 
L 251.63798 207.907827 
L 253.65697 244.468829 
L 255.67596 265.887612 
L 257.694949 262.421835 
L 259.713939 270.877506 
L 261.732929 250.454648 
L 263.751919 262.539541 
L 265.770909 225.692802 
L 267.789899 170.545788 
L 269.808889 147.032504 
L 271.827879 234.529327 
L 273.846869 248.149979 
L 275.865859 238.093025 
L 277.884848 241.762691 
L 279.903838 240.806695 
L 281.922828 227.719591 
L 283.941818 185.675072 
L 285.960808 139.705109 
L 287.979798 122.684869 
L 289.998788 189.340569 
L 292.017778 227.433798 
L 294.036768 250.090769 
L 296.055758 260.400357 
L 298.074747 262.563268 
L 300.093737 272.641594 
L 302.112727 270.89984 
L 304.131717 263.459869 
L 306.150707 262.05491 
L 308.169697 237.7979 
L 310.188687 150.972186 
L 312.207677 118.814097 
L 314.226667 83.197924 
L 316.245657 75.775709 
L 318.264646 158.064216 
L 320.283636 175.733518 
L 322.302626 199.436136 
L 324.321616 215.076198 
L 326.340606 232.351992 
L 328.359596 238.111737 
L 330.378586 244.250775 
L 332.397576 258.009232 
L 334.416566 258.216565 
L 336.435556 246.524726 
L 338.454545 259.519645 
L 340.473535 251.400983 
L 342.492525 248.679562 
L 344.511515 243.956991 
L 346.530505 228.033531 
L 348.549495 174.880272 
L 350.568485 194.019695 
L 352.587475 194.265593 
L 354.606465 183.509061 
L 356.625455 102.587101 
L 358.644444 38.599621 
L 360.663434 148.295967 
L 362.682424 185.116011 
L 364.701414 233.625285 
L 366.720404 224.979325 
L 368.739394 266.058456 
L 370.758384 260.748869 
L 372.777374 273.088489 
L 374.796364 275.323636 
L 376.815354 270.647991 
L 378.834343 275.109213 
L 380.853333 272.72376 
L 382.872323 268.309359 
L 384.891313 254.452053 
L 386.910303 231.307976 
L 388.929293 202.035907 
L 390.948283 157.068565 
L 392.967273 129.398786 
L 394.986263 147.250308 
L 397.005253 234.438305 
L 399.024242 238.882891 
L 401.043232 248.29441 
L 403.062222 241.806989 
L 405.081212 262.557243 
L 407.100202 268.13358 
L 409.119192 268.601897 
L 411.138182 273.292259 
L 413.157172 261.306761 
L 415.176162 247.235684 
L 417.195152 262.316488 
L 419.214141 235.594177 
L 421.233131 221.48305 
L 423.252121 234.127491 
L 425.271111 252.51664 
L 427.290101 249.792055 
L 429.309091 248.969658 
L 431.328081 257.089422 
L 433.347071 253.347924 
L 435.366061 236.165474 
L 437.385051 241.670983 
L 439.40404 242.412709 
L 441.42303 219.534567 
L 443.44202 193.306227 
L 445.46101 178.801786 
L 447.48 63.112304 
L 447.48 63.112304 
" style="fill:none;stroke:#666666;stroke-dasharray:1,1.65;stroke-dashoffset:0;"/>
    <defs>
     <path d="M 0 0.5 
C 0.132602 0.5 0.25979 0.447317 0.353553 0.353553 
C 0.447317 0.25979 0.5 0.132602 0.5 0 
C 0.5 -0.132602 0.447317 -0.25979 0.353553 -0.353553 
C 0.25979 -0.447317 0.132602 -0.5 0 -0.5 
C -0.132602 -0.5 -0.25979 -0.447317 -0.353553 -0.353553 
C -0.447317 -0.25979 -0.5 -0.132602 -0.5 0 
C -0.5 0.132602 -0.447317 0.25979 -0.353553 0.353553 
C -0.25979 0.447317 -0.132602 0.5 0 0.5 
z
" id="m7ca4448797" style="stroke:#666666;"/>
    </defs>
    <g clip-path="url(#p1c7d6f7343)">
     <use style="fill:#666666;stroke:#666666;" x="47.72" xlink:href="#m7ca4448797" y="73.083978"/>
     <use style="fill:#666666;stroke:#666666;" x="49.73899" xlink:href="#m7ca4448797" y="189.634009"/>
     <use style="fill:#666666;stroke:#666666;" x="51.75798" xlink:href="#m7ca4448797" y="168.937093"/>
     <use style="fill:#666666;stroke:#666666;" x="53.77697" xlink:href="#m7ca4448797" y="125.890222"/>
     <use style="fill:#666666;stroke:#666666;" x="55.79596" xlink:href="#m7ca4448797" y="153.422437"/>
     <use style="fill:#666666;stroke:#666666;" x="57.814949" xlink:href="#m7ca4448797" y="133.713629"/>
     <use style="fill:#666666;stroke:#666666;" x="59.833939" xlink:href="#m7ca4448797" y="161.479237"/>
     <use style="fill:#666666;stroke:#666666;" x="61.852929" xlink:href="#m7ca4448797" y="128.922731"/>
     <use style="fill:#666666;stroke:#666666;" x="63.871919" xlink:href="#m7ca4448797" y="148.523515"/>
     <use style="fill:#666666;stroke:#666666;" x="65.890909" xlink:href="#m7ca4448797" y="178.419183"/>
     <use style="fill:#666666;stroke:#666666;" x="67.909899" xlink:href="#m7ca4448797" y="209.077093"/>
     <use style="fill:#666666;stroke:#666666;" x="69.928889" xlink:href="#m7ca4448797" y="218.744433"/>
     <use style="fill:#666666;stroke:#666666;" x="71.947879" xlink:href="#m7ca4448797" y="217.214164"/>
     <use style="fill:#666666;stroke:#666666;" x="73.966869" xlink:href="#m7ca4448797" y="217.586144"/>
     <use style="fill:#666666;stroke:#666666;" x="75.985859" xlink:href="#m7ca4448797" y="172.448611"/>
     <use style="fill:#666666;stroke:#666666;" x="78.004848" xlink:href="#m7ca4448797" y="182.07864"/>
     <use style="fill:#666666;stroke:#666666;" x="80.023838" xlink:href="#m7ca4448797" y="204.530612"/>
     <use style="fill:#666666;stroke:#666666;" x="82.042828" xlink:href="#m7ca4448797" y="192.505091"/>
     <use style="fill:#666666;stroke:#666666;" x="84.061818" xlink:href="#m7ca4448797" y="196.664267"/>
     <use style="fill:#666666;stroke:#666666;" x="86.080808" xlink:href="#m7ca4448797" y="259.662301"/>
     <use style="fill:#666666;stroke:#666666;" x="88.099798" xlink:href="#m7ca4448797" y="229.463773"/>
     <use style="fill:#666666;stroke:#666666;" x="90.118788" xlink:href="#m7ca4448797" y="232.435885"/>
     <use style="fill:#666666;stroke:#666666;" x="92.137778" xlink:href="#m7ca4448797" y="256.567332"/>
     <use style="fill:#666666;stroke:#666666;" x="94.156768" xlink:href="#m7ca4448797" y="238.118419"/>
     <use style="fill:#666666;stroke:#666666;" x="96.175758" xlink:href="#m7ca4448797" y="224.869468"/>
     <use style="fill:#666666;stroke:#666666;" x="98.194747" xlink:href="#m7ca4448797" y="226.48692"/>
     <use style="fill:#666666;stroke:#666666;" x="100.213737" xlink:href="#m7ca4448797" y="204.162094"/>
     <use style="fill:#666666;stroke:#666666;" x="102.232727" xlink:href="#m7ca4448797" y="180.083105"/>
     <use style="fill:#666666;stroke:#666666;" x="104.251717" xlink:href="#m7ca4448797" y="83.16474"/>
     <use style="fill:#666666;stroke:#666666;" x="106.270707" xlink:href="#m7ca4448797" y="25.796364"/>
     <use style="fill:#666666;stroke:#666666;" x="108.289697" xlink:href="#m7ca4448797" y="143.841745"/>
     <use style="fill:#666666;stroke:#666666;" x="110.308687" xlink:href="#m7ca4448797" y="205.154357"/>
     <use style="fill:#666666;stroke:#666666;" x="112.327677" xlink:href="#m7ca4448797" y="251.038125"/>
     <use style="fill:#666666;stroke:#666666;" x="114.346667" xlink:href="#m7ca4448797" y="255.862112"/>
     <use style="fill:#666666;stroke:#666666;" x="116.365657" xlink:href="#m7ca4448797" y="264.639284"/>
     <use style="fill:#666666;stroke:#666666;" x="118.384646" xlink:href="#m7ca4448797" y="266.073455"/>
     <use style="fill:#666666;stroke:#666666;" x="120.403636" xlink:href="#m7ca4448797" y="253.36803"/>
     <use style="fill:#666666;stroke:#666666;" x="122.422626" xlink:href="#m7ca4448797" y="227.397861"/>
     <use style="fill:#666666;stroke:#666666;" x="124.441616" xlink:href="#m7ca4448797" y="154.512362"/>
     <use style="fill:#666666;stroke:#666666;" x="126.460606" xlink:href="#m7ca4448797" y="156.438401"/>
     <use style="fill:#666666;stroke:#666666;" x="128.479596" xlink:href="#m7ca4448797" y="215.113588"/>
     <use style="fill:#666666;stroke:#666666;" x="130.498586" xlink:href="#m7ca4448797" y="259.578046"/>
     <use style="fill:#666666;stroke:#666666;" x="132.517576" xlink:href="#m7ca4448797" y="270.950036"/>
     <use style="fill:#666666;stroke:#666666;" x="134.536566" xlink:href="#m7ca4448797" y="260.6533"/>
     <use style="fill:#666666;stroke:#666666;" x="136.555556" xlink:href="#m7ca4448797" y="257.744059"/>
     <use style="fill:#666666;stroke:#666666;" x="138.574545" xlink:href="#m7ca4448797" y="256.510705"/>
     <use style="fill:#666666;stroke:#666666;" x="140.593535" xlink:href="#m7ca4448797" y="231.44319"/>
     <use style="fill:#666666;stroke:#666666;" x="142.612525" xlink:href="#m7ca4448797" y="181.318185"/>
     <use style="fill:#666666;stroke:#666666;" x="144.631515" xlink:href="#m7ca4448797" y="236.642785"/>
     <use style="fill:#666666;stroke:#666666;" x="146.650505" xlink:href="#m7ca4448797" y="212.614024"/>
     <use style="fill:#666666;stroke:#666666;" x="148.669495" xlink:href="#m7ca4448797" y="253.267199"/>
     <use style="fill:#666666;stroke:#666666;" x="150.688485" xlink:href="#m7ca4448797" y="252.029265"/>
     <use style="fill:#666666;stroke:#666666;" x="152.707475" xlink:href="#m7ca4448797" y="260.126597"/>
     <use style="fill:#666666;stroke:#666666;" x="154.726465" xlink:href="#m7ca4448797" y="267.360835"/>
     <use style="fill:#666666;stroke:#666666;" x="156.745455" xlink:href="#m7ca4448797" y="267.0865"/>
     <use style="fill:#666666;stroke:#666666;" x="158.764444" xlink:href="#m7ca4448797" y="253.999944"/>
     <use style="fill:#666666;stroke:#666666;" x="160.783434" xlink:href="#m7ca4448797" y="248.549669"/>
     <use style="fill:#666666;stroke:#666666;" x="162.802424" xlink:href="#m7ca4448797" y="230.550696"/>
     <use style="fill:#666666;stroke:#666666;" x="164.821414" xlink:href="#m7ca4448797" y="212.713885"/>
     <use style="fill:#666666;stroke:#666666;" x="166.840404" xlink:href="#m7ca4448797" y="215.636111"/>
     <use style="fill:#666666;stroke:#666666;" x="168.859394" xlink:href="#m7ca4448797" y="191.85653"/>
     <use style="fill:#666666;stroke:#666666;" x="170.878384" xlink:href="#m7ca4448797" y="173.297026"/>
     <use style="fill:#666666;stroke:#666666;" x="172.897374" xlink:href="#m7ca4448797" y="183.314365"/>
     <use style="fill:#666666;stroke:#666666;" x="174.916364" xlink:href="#m7ca4448797" y="210.806262"/>
     <use style="fill:#666666;stroke:#666666;" x="176.935354" xlink:href="#m7ca4448797" y="234.917363"/>
     <use style="fill:#666666;stroke:#666666;" x="178.954343" xlink:href="#m7ca4448797" y="261.49716"/>
     <use style="fill:#666666;stroke:#666666;" x="180.973333" xlink:href="#m7ca4448797" y="268.204656"/>
     <use style="fill:#666666;stroke:#666666;" x="182.992323" xlink:href="#m7ca4448797" y="269.71046"/>
     <use style="fill:#666666;stroke:#666666;" x="185.011313" xlink:href="#m7ca4448797" y="263.273311"/>
     <use style="fill:#666666;stroke:#666666;" x="187.030303" xlink:href="#m7ca4448797" y="259.578447"/>
     <use style="fill:#666666;stroke:#666666;" x="189.049293" xlink:href="#m7ca4448797" y="256.644598"/>
     <use style="fill:#666666;stroke:#666666;" x="191.068283" xlink:href="#m7ca4448797" y="268.430084"/>
     <use style="fill:#666666;stroke:#666666;" x="193.087273" xlink:href="#m7ca4448797" y="264.811168"/>
     <use style="fill:#666666;stroke:#666666;" x="195.106263" xlink:href="#m7ca4448797" y="257.499617"/>
     <use style="fill:#666666;stroke:#666666;" x="197.125253" xlink:href="#m7ca4448797" y="232.993227"/>
     <use style="fill:#666666;stroke:#666666;" x="199.144242" xlink:href="#m7ca4448797" y="174.48258"/>
     <use style="fill:#666666;stroke:#666666;" x="201.163232" xlink:href="#m7ca4448797" y="140.16426"/>
     <use style="fill:#666666;stroke:#666666;" x="203.182222" xlink:href="#m7ca4448797" y="140.984534"/>
     <use style="fill:#666666;stroke:#666666;" x="205.201212" xlink:href="#m7ca4448797" y="139.061764"/>
     <use style="fill:#666666;stroke:#666666;" x="207.220202" xlink:href="#m7ca4448797" y="201.25415"/>
     <use style="fill:#666666;stroke:#666666;" x="209.239192" xlink:href="#m7ca4448797" y="221.7613"/>
     <use style="fill:#666666;stroke:#666666;" x="211.258182" xlink:href="#m7ca4448797" y="229.809151"/>
     <use style="fill:#666666;stroke:#666666;" x="213.277172" xlink:href="#m7ca4448797" y="237.217683"/>
     <use style="fill:#666666;stroke:#666666;" x="215.296162" xlink:href="#m7ca4448797" y="245.844969"/>
     <use style="fill:#666666;stroke:#666666;" x="217.315152" xlink:href="#m7ca4448797" y="232.755437"/>
     <use style="fill:#666666;stroke:#666666;" x="219.334141" xlink:href="#m7ca4448797" y="247.296771"/>
     <use style="fill:#666666;stroke:#666666;" x="221.353131" xlink:href="#m7ca4448797" y="207.596998"/>
     <use style="fill:#666666;stroke:#666666;" x="223.372121" xlink:href="#m7ca4448797" y="195.154821"/>
     <use style="fill:#666666;stroke:#666666;" x="225.391111" xlink:href="#m7ca4448797" y="214.467123"/>
     <use style="fill:#666666;stroke:#666666;" x="227.410101" xlink:href="#m7ca4448797" y="203.877131"/>
     <use style="fill:#666666;stroke:#666666;" x="229.429091" xlink:href="#m7ca4448797" y="207.262408"/>
     <use style="fill:#666666;stroke:#666666;" x="231.448081" xlink:href="#m7ca4448797" y="197.452866"/>
     <use style="fill:#666666;stroke:#666666;" x="233.467071" xlink:href="#m7ca4448797" y="159.498822"/>
     <use style="fill:#666666;stroke:#666666;" x="235.486061" xlink:href="#m7ca4448797" y="173.796236"/>
     <use style="fill:#666666;stroke:#666666;" x="237.505051" xlink:href="#m7ca4448797" y="162.683412"/>
     <use style="fill:#666666;stroke:#666666;" x="239.52404" xlink:href="#m7ca4448797" y="74.725958"/>
     <use style="fill:#666666;stroke:#666666;" x="241.54303" xlink:href="#m7ca4448797" y="27.968085"/>
     <use style="fill:#666666;stroke:#666666;" x="243.56202" xlink:href="#m7ca4448797" y="79.657528"/>
     <use style="fill:#666666;stroke:#666666;" x="245.58101" xlink:href="#m7ca4448797" y="96.347828"/>
     <use style="fill:#666666;stroke:#666666;" x="247.6" xlink:href="#m7ca4448797" y="106.518545"/>
     <use style="fill:#666666;stroke:#666666;" x="249.61899" xlink:href="#m7ca4448797" y="159.52103"/>
     <use style="fill:#666666;stroke:#666666;" x="251.63798" xlink:href="#m7ca4448797" y="207.907827"/>
     <use style="fill:#666666;stroke:#666666;" x="253.65697" xlink:href="#m7ca4448797" y="244.468829"/>
     <use style="fill:#666666;stroke:#666666;" x="255.67596" xlink:href="#m7ca4448797" y="265.887612"/>
     <use style="fill:#666666;stroke:#666666;" x="257.694949" xlink:href="#m7ca4448797" y="262.421835"/>
     <use style="fill:#666666;stroke:#666666;" x="259.713939" xlink:href="#m7ca4448797" y="270.877506"/>
     <use style="fill:#666666;stroke:#666666;" x="261.732929" xlink:href="#m7ca4448797" y="250.454648"/>
     <use style="fill:#666666;stroke:#666666;" x="263.751919" xlink:href="#m7ca4448797" y="262.539541"/>
     <use style="fill:#666666;stroke:#666666;" x="265.770909" xlink:href="#m7ca4448797" y="225.692802"/>
     <use style="fill:#666666;stroke:#666666;" x="267.789899" xlink:href="#m7ca4448797" y="170.545788"/>
     <use style="fill:#666666;stroke:#666666;" x="269.808889" xlink:href="#m7ca4448797" y="147.032504"/>
     <use style="fill:#666666;stroke:#666666;" x="271.827879" xlink:href="#m7ca4448797" y="234.529327"/>
     <use style="fill:#666666;stroke:#666666;" x="273.846869" xlink:href="#m7ca4448797" y="248.149979"/>
     <use style="fill:#666666;stroke:#666666;" x="275.865859" xlink:href="#m7ca4448797" y="238.093025"/>
     <use style="fill:#666666;stroke:#666666;" x="277.884848" xlink:href="#m7ca4448797" y="241.762691"/>
     <use style="fill:#666666;stroke:#666666;" x="279.903838" xlink:href="#m7ca4448797" y="240.806695"/>
     <use style="fill:#666666;stroke:#666666;" x="281.922828" xlink:href="#m7ca4448797" y="227.719591"/>
     <use style="fill:#666666;stroke:#666666;" x="283.941818" xlink:href="#m7ca4448797" y="185.675072"/>
     <use style="fill:#666666;stroke:#666666;" x="285.960808" xlink:href="#m7ca4448797" y="139.705109"/>
     <use style="fill:#666666;stroke:#666666;" x="287.979798" xlink:href="#m7ca4448797" y="122.684869"/>
     <use style="fill:#666666;stroke:#666666;" x="289.998788" xlink:href="#m7ca4448797" y="189.340569"/>
     <use style="fill:#666666;stroke:#666666;" x="292.017778" xlink:href="#m7ca4448797" y="227.433798"/>
     <use style="fill:#666666;stroke:#666666;" x="294.036768" xlink:href="#m7ca4448797" y="250.090769"/>
     <use style="fill:#666666;stroke:#666666;" x="296.055758" xlink:href="#m7ca4448797" y="260.400357"/>
     <use style="fill:#666666;stroke:#666666;" x="298.074747" xlink:href="#m7ca4448797" y="262.563268"/>
     <use style="fill:#666666;stroke:#666666;" x="300.093737" xlink:href="#m7ca4448797" y="272.641594"/>
     <use style="fill:#666666;stroke:#666666;" x="302.112727" xlink:href="#m7ca4448797" y="270.89984"/>
     <use style="fill:#666666;stroke:#666666;" x="304.131717" xlink:href="#m7ca4448797" y="263.459869"/>
     <use style="fill:#666666;stroke:#666666;" x="306.150707" xlink:href="#m7ca4448797" y="262.05491"/>
     <use style="fill:#666666;stroke:#666666;" x="308.169697" xlink:href="#m7ca4448797" y="237.7979"/>
     <use style="fill:#666666;stroke:#666666;" x="310.188687" xlink:href="#m7ca4448797" y="150.972186"/>
     <use style="fill:#666666;stroke:#666666;" x="312.207677" xlink:href="#m7ca4448797" y="118.814097"/>
     <use style="fill:#666666;stroke:#666666;" x="314.226667" xlink:href="#m7ca4448797" y="83.197924"/>
     <use style="fill:#666666;stroke:#666666;" x="316.245657" xlink:href="#m7ca4448797" y="75.775709"/>
     <use style="fill:#666666;stroke:#666666;" x="318.264646" xlink:href="#m7ca4448797" y="158.064216"/>
     <use style="fill:#666666;stroke:#666666;" x="320.283636" xlink:href="#m7ca4448797" y="175.733518"/>
     <use style="fill:#666666;stroke:#666666;" x="322.302626" xlink:href="#m7ca4448797" y="199.436136"/>
     <use style="fill:#666666;stroke:#666666;" x="324.321616" xlink:href="#m7ca4448797" y="215.076198"/>
     <use style="fill:#666666;stroke:#666666;" x="326.340606" xlink:href="#m7ca4448797" y="232.351992"/>
     <use style="fill:#666666;stroke:#666666;" x="328.359596" xlink:href="#m7ca4448797" y="238.111737"/>
     <use style="fill:#666666;stroke:#666666;" x="330.378586" xlink:href="#m7ca4448797" y="244.250775"/>
     <use style="fill:#666666;stroke:#666666;" x="332.397576" xlink:href="#m7ca4448797" y="258.009232"/>
     <use style="fill:#666666;stroke:#666666;" x="334.416566" xlink:href="#m7ca4448797" y="258.216565"/>
     <use style="fill:#666666;stroke:#666666;" x="336.435556" xlink:href="#m7ca4448797" y="246.524726"/>
     <use style="fill:#666666;stroke:#666666;" x="338.454545" xlink:href="#m7ca4448797" y="259.519645"/>
     <use style="fill:#666666;stroke:#666666;" x="340.473535" xlink:href="#m7ca4448797" y="251.400983"/>
     <use style="fill:#666666;stroke:#666666;" x="342.492525" xlink:href="#m7ca4448797" y="248.679562"/>
     <use style="fill:#666666;stroke:#666666;" x="344.511515" xlink:href="#m7ca4448797" y="243.956991"/>
     <use style="fill:#666666;stroke:#666666;" x="346.530505" xlink:href="#m7ca4448797" y="228.033531"/>
     <use style="fill:#666666;stroke:#666666;" x="348.549495" xlink:href="#m7ca4448797" y="174.880272"/>
     <use style="fill:#666666;stroke:#666666;" x="350.568485" xlink:href="#m7ca4448797" y="194.019695"/>
     <use style="fill:#666666;stroke:#666666;" x="352.587475" xlink:href="#m7ca4448797" y="194.265593"/>
     <use style="fill:#666666;stroke:#666666;" x="354.606465" xlink:href="#m7ca4448797" y="183.509061"/>
     <use style="fill:#666666;stroke:#666666;" x="356.625455" xlink:href="#m7ca4448797" y="102.587101"/>
     <use style="fill:#666666;stroke:#666666;" x="358.644444" xlink:href="#m7ca4448797" y="38.599621"/>
     <use style="fill:#666666;stroke:#666666;" x="360.663434" xlink:href="#m7ca4448797" y="148.295967"/>
     <use style="fill:#666666;stroke:#666666;" x="362.682424" xlink:href="#m7ca4448797" y="185.116011"/>
     <use style="fill:#666666;stroke:#666666;" x="364.701414" xlink:href="#m7ca4448797" y="233.625285"/>
     <use style="fill:#666666;stroke:#666666;" x="366.720404" xlink:href="#m7ca4448797" y="224.979325"/>
     <use style="fill:#666666;stroke:#666666;" x="368.739394" xlink:href="#m7ca4448797" y="266.058456"/>
     <use style="fill:#666666;stroke:#666666;" x="370.758384" xlink:href="#m7ca4448797" y="260.748869"/>
     <use style="fill:#666666;stroke:#666666;" x="372.777374" xlink:href="#m7ca4448797" y="273.088489"/>
     <use style="fill:#666666;stroke:#666666;" x="374.796364" xlink:href="#m7ca4448797" y="275.323636"/>
     <use style="fill:#666666;stroke:#666666;" x="376.815354" xlink:href="#m7ca4448797" y="270.647991"/>
     <use style="fill:#666666;stroke:#666666;" x="378.834343" xlink:href="#m7ca4448797" y="275.109213"/>
     <use style="fill:#666666;stroke:#666666;" x="380.853333" xlink:href="#m7ca4448797" y="272.72376"/>
     <use style="fill:#666666;stroke:#666666;" x="382.872323" xlink:href="#m7ca4448797" y="268.309359"/>
     <use style="fill:#666666;stroke:#666666;" x="384.891313" xlink:href="#m7ca4448797" y="254.452053"/>
     <use style="fill:#666666;stroke:#666666;" x="386.910303" xlink:href="#m7ca4448797" y="231.307976"/>
     <use style="fill:#666666;stroke:#666666;" x="388.929293" xlink:href="#m7ca4448797" y="202.035907"/>
     <use style="fill:#666666;stroke:#666666;" x="390.948283" xlink:href="#m7ca4448797" y="157.068565"/>
     <use style="fill:#666666;stroke:#666666;" x="392.967273" xlink:href="#m7ca4448797" y="129.398786"/>
     <use style="fill:#666666;stroke:#666666;" x="394.986263" xlink:href="#m7ca4448797" y="147.250308"/>
     <use style="fill:#666666;stroke:#666666;" x="397.005253" xlink:href="#m7ca4448797" y="234.438305"/>
     <use style="fill:#666666;stroke:#666666;" x="399.024242" xlink:href="#m7ca4448797" y="238.882891"/>
     <use style="fill:#666666;stroke:#666666;" x="401.043232" xlink:href="#m7ca4448797" y="248.29441"/>
     <use style="fill:#666666;stroke:#666666;" x="403.062222" xlink:href="#m7ca4448797" y="241.806989"/>
     <use style="fill:#666666;stroke:#666666;" x="405.081212" xlink:href="#m7ca4448797" y="262.557243"/>
     <use style="fill:#666666;stroke:#666666;" x="407.100202" xlink:href="#m7ca4448797" y="268.13358"/>
     <use style="fill:#666666;stroke:#666666;" x="409.119192" xlink:href="#m7ca4448797" y="268.601897"/>
     <use style="fill:#666666;stroke:#666666;" x="411.138182" xlink:href="#m7ca4448797" y="273.292259"/>
     <use style="fill:#666666;stroke:#666666;" x="413.157172" xlink:href="#m7ca4448797" y="261.306761"/>
     <use style="fill:#666666;stroke:#666666;" x="415.176162" xlink:href="#m7ca4448797" y="247.235684"/>
     <use style="fill:#666666;stroke:#666666;" x="417.195152" xlink:href="#m7ca4448797" y="262.316488"/>
     <use style="fill:#666666;stroke:#666666;" x="419.214141" xlink:href="#m7ca4448797" y="235.594177"/>
     <use style="fill:#666666;stroke:#666666;" x="421.233131" xlink:href="#m7ca4448797" y="221.48305"/>
     <use style="fill:#666666;stroke:#666666;" x="423.252121" xlink:href="#m7ca4448797" y="234.127491"/>
     <use style="fill:#666666;stroke:#666666;" x="425.271111" xlink:href="#m7ca4448797" y="252.51664"/>
     <use style="fill:#666666;stroke:#666666;" x="427.290101" xlink:href="#m7ca4448797" y="249.792055"/>
     <use style="fill:#666666;stroke:#666666;" x="429.309091" xlink:href="#m7ca4448797" y="248.969658"/>
     <use style="fill:#666666;stroke:#666666;" x="431.328081" xlink:href="#m7ca4448797" y="257.089422"/>
     <use style="fill:#666666;stroke:#666666;" x="433.347071" xlink:href="#m7ca4448797" y="253.347924"/>
     <use style="fill:#666666;stroke:#666666;" x="435.366061" xlink:href="#m7ca4448797" y="236.165474"/>
     <use style="fill:#666666;stroke:#666666;" x="437.385051" xlink:href="#m7ca4448797" y="241.670983"/>
     <use style="fill:#666666;stroke:#666666;" x="439.40404" xlink:href="#m7ca4448797" y="242.412709"/>
     <use style="fill:#666666;stroke:#666666;" x="441.42303" xlink:href="#m7ca4448797" y="219.534567"/>
     <use style="fill:#666666;stroke:#666666;" x="443.44202" xlink:href="#m7ca4448797" y="193.306227"/>
     <use style="fill:#666666;stroke:#666666;" x="445.46101" xlink:href="#m7ca4448797" y="178.801786"/>
     <use style="fill:#666666;stroke:#666666;" x="447.48" xlink:href="#m7ca4448797" y="63.112304"/>
    </g>
   </g>
   <g id="patch_3">
    <path d="M 47.72 287.8 
L 47.72 13.32 
" style="fill:none;stroke:#000000;stroke-linecap:square;stroke-linejoin:miter;stroke-width:0.8;"/>
   </g>
   <g id="patch_4">
    <path d="M 447.48 287.8 
L 447.48 13.32 
" style="fill:none;stroke:#000000;stroke-linecap:square;stroke-linejoin:miter;stroke-width:0.8;"/>
   </g>
   <g id="patch_5">
    <path d="M 47.72 287.8 
L 447.48 287.8 
" style="fill:none;stroke:#000000;stroke-linecap:square;stroke-linejoin:miter;stroke-width:0.8;"/>
   </g>
   <g id="patch_6">
    <path d="M 47.72 13.32 
L 447.48 13.32 
" style="fill:none;stroke:#000000;stroke-linecap:square;stroke-linejoin:miter;stroke-width:0.8;"/>
   </g>
  </g>
 </g>
 <defs>
  <clipPath id="p1c7d6f7343">
   <rect height="274.48" width="399.76" x="47.72" y="13.32"/>
  </clipPath>
 </defs>
</svg>
